<?xml version="1.0" standalone="no"?><!DOCTYPE svg PUBLIC "-//W3C//DTD SVG 1.1//EN" "http://www.w3.org/Graphics/SVG/1.1/DTD/svg11.dtd"><svg t="1507899326047" class="icon" style="" viewBox="0 0 1024 1024" version="1.1" xmlns="http://www.w3.org/2000/svg" p-id="9394" xmlns:xlink="http://www.w3.org/1999/xlink" width="256" height="256"><defs><style type="text/css"></style></defs><path d="M512 0C229.255011 0 0.017153 229.237858 0.017153 511.982847s229.237858 512.017153 511.982847 512.017153S1023.982847 794.773578 1023.982847 511.982847 794.790731 0 512 0z m157.090714 520.410877h-95.452878v339.75141H433.426054v-339.75141h-68.819387V402.532805H433.426054v-70.511855c0-72.250064 24.986766-118.701435 74.011145-138.496443 24.071919-9.445798 44.713161-12.030242 66.234943-12.030242h106.648323V298.468926h-63.673371c-18.925903 0-31.001887 5.157452-37.017009 15.483791-4.265475 6.861355-5.980814 18.914468-5.980814 35.255927V402.532805h108.363661z" p-id="9395" fill="#f3d7b5"></path></svg>