<?xml version="1.0" standalone="no"?><!DOCTYPE svg PUBLIC "-//W3C//DTD SVG 1.1//EN" "http://www.w3.org/Graphics/SVG/1.1/DTD/svg11.dtd"><svg t="1507898658078" class="icon" style="" viewBox="0 0 1024 1024" version="1.1" xmlns="http://www.w3.org/2000/svg" p-id="5453" xmlns:xlink="http://www.w3.org/1999/xlink" width="256" height="256"><defs><style type="text/css"></style></defs><path d="M511.965867 0C229.239467 0 0 229.239467 0 512.034133c0 226.2016 146.705067 418.0992 350.173867 485.7856 25.6 4.7104 34.9184-11.093333 34.9184-24.6784 0-12.151467-0.4096-44.3392-0.682667-87.074133-142.404267 30.958933-172.475733-68.642133-172.475733-68.642133-23.278933-59.118933-56.832-74.888533-56.832-74.888534-46.4896-31.744 3.515733-31.1296 3.515733-31.1296 51.370667 3.618133 78.4384 52.770133 78.4384 52.770134 45.6704 78.267733 119.808 55.671467 148.992 42.564266 4.642133-33.109333 17.885867-55.671467 32.494933-68.471466-113.698133-12.9024-233.198933-56.832-233.198933-253.0304 0-55.9104 19.933867-101.614933 52.701867-137.386667-5.290667-12.970667-22.8352-65.024 5.0176-135.509333 0 0 42.973867-13.755733 140.8 52.497066a490.052267 490.052267 0 0 1 128.170666-17.237333 490.837333 490.837333 0 0 1 128.170667 17.237333c97.757867-66.2528 140.663467-52.497067 140.663467-52.497066 27.921067 70.485333 10.3424 122.538667 5.085866 135.509333 32.836267 35.771733 52.6336 81.476267 52.6336 137.386667 0 196.676267-119.7056 239.957333-233.7792 252.654933 18.397867 15.803733 34.781867 47.035733 34.781867 94.788267 0 68.471467-0.648533 123.6992-0.648533 140.458666 0 13.687467 9.250133 29.627733 35.2256 24.644267C877.431467 929.928533 1024 738.167467 1024 512.034133 1024 229.239467 794.7264 0 511.965867 0" fill="#f3d7b5" p-id="5454"></path></svg>