<?xml version="1.0" standalone="no"?><!DOCTYPE svg PUBLIC "-//W3C//DTD SVG 1.1//EN" "http://www.w3.org/Graphics/SVG/1.1/DTD/svg11.dtd"><svg t="1507899285784" class="icon" style="" viewBox="0 0 1024 1024" version="1.1" xmlns="http://www.w3.org/2000/svg" p-id="7462" xmlns:xlink="http://www.w3.org/1999/xlink" width="256" height="256"><defs><style type="text/css"></style></defs><path d="M510.008 1024c281.67 0 510.008-229.23 510.008-512S791.677 0 510.008 0C228.338 0 0 229.23 0 512s228.338 512 510.008 512z m-198.92-832l69.556 45.656c3.554 3.608 2.674 7.176-2.673 10.744-8.945 3.608-18.727 10.744-29.43 21.488l-10.702 13.428 90.961-5.372 34.78-37.6 48.156 40.284L514.41 286c-1.797 1.804-3.594 2.684-5.351 2.684l-117.713 5.372c23.158 14.352 34.78 29.544 34.78 45.656-1.796 14.352-9.821 23.292-24.077 26.856-14.297 1.804-21.405-1.764-21.405-10.744-1.797-30.424-6.271-50.104-13.376-59.088l-45.478 2.684c-42.805 39.404-88.283 79.692-136.439 120.86-3.594 3.608-5.351 1.804-5.351-5.372C240.611 337.952 284.336 263.632 311.088 192z m3.766 300.4l-5.351 265.888c-1.797 25.052-15.173 51.028-40.127 77.888-7.148 5.372-11.623 5.372-13.376 0l5.351-196.06V532.688L258.678 436l61.531 24.172c1.757 0 3.554 0.924 5.351 2.684l-2.673 5.372-8.033 24.172z m27.172-131.74c51.71 16.116 77.585 30.468 77.585 42.972-3.594 21.488-11.623 35.836-24.078 42.972-8.945 5.372-16.054 2.684-21.405-8.056-14.296-39.364-26.751-63.536-37.454-72.516-1.796-5.372 0-7.136 5.352-5.372z m85.453 320.828c-5.35 16.116-15.172 29.544-29.429 40.284-7.148 5.372-11.622 3.608-13.376-5.372V485.428c-1.796-5.372 0-6.252 5.352-2.684l37.453 24.172 123.064-5.372L571.947 472l53.507 29.544c1.753 0 2.674 1.804 2.674 5.372l-16.054 24.172 2.674 115.488c-1.797 17.92-12.5 39.404-32.103 64.456-8.945 7.176-16.053 7.176-21.404 0-1.797-5.372-5.351-11.624-10.702-18.8-3.594-7.132-6.272-12.504-8.025-16.116l-115.035 5.372zM552.414 512L424 514.684v67.144l109.688-5.372c3.554 0 5.35 1.804 5.35 5.372 0 3.608-2.673 5.372-8.024 5.372l-107.01 5.372 2.674 75.2 125.74-5.372V512h-0.004z m5.245-84.968c-33.904 0-61.532 2.684-82.932 8.056L456 416.288l208.673-10.744L691.424 376l56.18 34.916c0 1.804 0.877 2.684 2.674 2.684 1.754 1.804 0.877 3.608-2.673 5.372L726.2 445.828l2.673 153.088 2.674 107.428c3.554 50.104-23.202 94-80.259 131.6-3.594 1.764-6.271 1.764-8.024 0-1.797-1.804-1.797-4.492 0-8.056-1.797-25.096-10.703-43.896-26.752-56.4-1.797-1.804-2.674-3.608-2.674-5.372 0-1.804 0.877-2.684 2.674-2.684 37.454 1.764 54.384-7.176 50.83-26.856l-2.674-316.916-107.01 5.372zM554.925 184l66.882 40.284c3.555 1.804 2.674 4.492-2.673 8.056-10.702 3.608-19.647 10.744-26.752 21.488-1.797 1.804-3.594 4.492-5.35 8.056-3.595 5.372-7.149 9.86-10.703 13.428l115.039-5.372 34.78-37.6 48.156 40.284c3.554 3.608 3.554 5.372 0 5.372l-147.141 8.056c35.656 19.724 53.507 37.6 53.507 53.716-3.594 16.116-14.297 28.66-32.103 37.6-14.296 1.804-21.404-2.684-21.404-13.428-1.797-37.6-8.025-63.536-18.727-77.888l-42.805 2.684c-5.351 5.372-13.376 14.352-24.078 26.856-21.404 26.856-40.127 48.344-56.18 64.456-3.595 1.804-6.272 2.684-8.025 2.684-1.797 0-1.797-1.764 0-5.372 35.648-75.188 61.523-139.648 77.577-193.36z" p-id="7463" fill="#f3d7b5"></path></svg>