<?xml version="1.0" standalone="no"?><!DOCTYPE svg PUBLIC "-//W3C//DTD SVG 1.1//EN" "http://www.w3.org/Graphics/SVG/1.1/DTD/svg11.dtd"><svg class="icon" width="32px" height="32.00px" viewBox="0 0 1024 1024" version="1.1" xmlns="http://www.w3.org/2000/svg"><path fill="#ea986c" d="M503.520789 1024c-7.937984 0-15.515152-2.88654-21.649048-8.659619-53.400987-47.627907-31.751938-321.127555-14.071882-479.887245l11.546159-75.050035 2.525723 0.360817c-3.968992-149.017618-8.298802-352.157858-9.381255-410.249471l23.092319-0.360818c4.32981 220.459479 12.267794 554.93728 15.515151 572.978154 4.690627 18.762509 23.453136 322.210007 9.020437 391.486963l-1.44327 7.216349-7.216349 1.804088c-2.88654 0-5.412262 0.360817-7.937985 0.360817z m-17.680056-440.197322c-22.731501 226.954193-18.401691 387.878788 11.185342 414.579281 0.721635 0.721635 1.44327 1.082452 1.804087 1.44327 9.742072-79.379845-6.494715-353.601128-10.463707-371.642001-0.721635-3.247357-1.804087-19.484144-2.525722-44.38055z"  /><path fill="#ea986c" d="M461.305144 706.841438l-1.443269-2.164905c-3.608175-6.133897-3.968992-6.855532-7.21635-14.793517l-3.968992-9.381254c-11.185342-11.185342-111.853418-18.762509-198.81043-18.762509-42.215645 2.164905-71.081043-9.742072-84.070472-34.999295-40.05074-76.132488 86.957012-245.716702 101.389711-264.840028C381.203665 234.53136 471.768851 23.453136 472.490486 21.288231l8.298802-19.844961 13.350247 16.958421c54.844257 69.637773 94.534179 138.914729 133.502466 206.02678 38.968288 67.472868 79.379845 137.471459 134.945737 207.830867 100.668076 127.368569 92.369274 142.883721 87.678647 151.182522-0.360817 0.721635-1.082452 1.44327-1.44327 2.164905-14.793517 79.379845-287.210712 102.111346-343.137421 106.080339l-1.804087-25.257224c133.141649-9.020437 320.045102-42.215645 320.045102-87.317829v-13.350247c-6.133897-13.711064-24.535588-45.82382-81.54475-117.626497-56.648344-71.802678-97.420719-142.522903-137.110641-211.078225-34.638478-61.338971-71.081043-124.121212-117.987315-186.542635-25.618041 56.287526-103.554616 219.016209-200.614517 327.261452-36.442565 47.627907-125.9253 184.377731-98.503172 237.057082 8.298802 15.875969 28.504581 23.092319 60.978154 21.649049 95.255814-0.360817 210.717407 5.412262 222.985201 34.27766l3.968992 9.381254c2.525722 6.494715 2.525722 6.494715 5.412262 11.185342l1.44327 2.164905-21.649049 13.350247z"  /><path fill="#ea986c" d="M481.150106 216.129669c-8.659619-47.267089-32.112755-47.267089-33.195208-47.26709l-1.082453-15.154334c1.804087-0.360817 37.525018-1.804087 49.071177 59.534884l-14.793516 2.88654z"  /><path fill="#ea986c" d="M478.985201 201.336152c-2.525722-38.60747 29.947851-56.648344 31.39112-57.369979l7.21635 13.350247c-1.082452 0.721635-25.257223 14.071882-23.453136 42.93728l-15.154334 1.082452zM489.809725 277.46864l-9.020437-12.267794C530.942918 229.479915 529.13883 216.490486 529.13883 216.490486l9.020437-11.906976c2.88654 1.804087 6.133897 5.412262 6.133897 11.546159 0.721635 14.432699-16.958421 34.638478-54.483439 61.338971z"  /><path fill="#ea986c" d="M487.284003 278.551092c-65.668781-22.731501-73.967583-56.287526-74.3284-57.730796l14.793516-3.247357-7.577167 1.804087 7.21635-1.804087c0 0.360817 7.577167 27.422128 64.586328 46.906272l-4.690627 14.071881zM490.892178 385.713883l-3.968993-14.793517c62.060606-16.958421 75.410853-64.586328 75.410853-64.947145l14.793517 3.968992c-0.721635 2.164905-15.875969 56.648344-86.235377 75.77167z"  /><path fill="#ea986c" d="M490.53136 397.260042c-47.627907-2.525722-100.307259-78.65821-102.472163-81.905567l12.628611-8.659619c14.071882 20.205779 57.369979 73.606765 90.926005 75.050035l-1.082453 15.515151zM490.170543 496.124031l-3.247358-14.793517c71.802678-15.154334 119.430585-96.699084 120.15222-97.420718l13.350247 7.577167c-2.164905 3.247357-51.596899 88.039464-130.255109 104.637068z"  /><path fill="#ea986c" d="M491.97463 499.371388c-84.792107-28.504581-139.275546-81.54475-141.440451-83.709654l10.463707-10.824525c0.360817 0.360817 54.483439 52.679352 135.667371 80.10148l-4.690627 14.432699zM504.603242 597.513742l-10.824525-10.463707c58.452431-60.978154 174.274841-103.554616 178.965469-105.358703l5.051445 14.432699c-1.082452 0-117.26568 42.93728-173.192389 101.389711zM469.964764 589.575758c-10.102889-34.638478-116.544045-59.534884-156.594785-66.390416l2.525722-15.154334c15.875969 2.525722 154.069063 27.061311 168.501762 76.854122l-14.432699 4.690628zM504.242424 649.110641L498.469345 635.03876c130.976744-51.957717 273.13883-76.493305 274.5821-76.493305l2.525722 15.154334c-1.44327 0-141.801268 24.174771-271.334743 75.410852zM468.521494 651.275546c-57.369979-26.339676-81.54475-32.473573-81.54475-32.473573l-2.525722-0.721635-1.44327-1.804087c-24.896406-29.226216-138.914729-31.030303-180.408739-29.226216l-0.721635-15.154334c15.875969-0.721635 153.708245-5.77308 190.872446 32.834391 7.21635 2.164905 32.473573 10.102889 81.905567 32.83439l-6.133897 13.711064z"  /></svg>