<?xml version="1.0" encoding="UTF-8" standalone="no"?>
<!DOCTYPE svg PUBLIC "-//W3C//DTD SVG 1.1//EN"
 "http://www.w3.org/Graphics/SVG/1.1/DTD/svg11.dtd">
<!-- Generated by graphviz version 2.40.1 (20161225.0304)
 -->
<!-- Title: dependencies Pages: 1 -->
<svg width="504pt" height="284pt"
 viewBox="0.00 0.00 504.00 284.00" xmlns="http://www.w3.org/2000/svg" xmlns:xlink="http://www.w3.org/1999/xlink">
<g id="graph0" class="graph" transform="scale(1 1) rotate(0) translate(4 280)">
<title>dependencies</title>
<polygon fill="#ffffff" stroke="transparent" points="-4,4 -4,-280 500,-280 500,4 -4,4"/>
<text text-anchor="start" x="227.0091" y="-42.4" font-family="sans-serif" font-weight="bold" font-size="14.00" fill="#000000">Legend</text>
<polygon fill="#ffffb3" stroke="transparent" points="14,-10 14,-30 34,-30 34,-10 14,-10"/>
<text text-anchor="start" x="37.629" y="-15.4" font-family="sans-serif" font-size="14.00" fill="#000000"> &#160;Declarations</text>
<polygon fill="#8dd3c7" stroke="transparent" points="127,-10 127,-30 147,-30 147,-10 127,-10"/>
<text text-anchor="start" x="150.7251" y="-15.4" font-family="sans-serif" font-size="14.00" fill="#000000"> &#160;Module</text>
<polygon fill="#80b1d3" stroke="transparent" points="213,-10 213,-30 233,-30 233,-10 213,-10"/>
<text text-anchor="start" x="236.7812" y="-15.4" font-family="sans-serif" font-size="14.00" fill="#000000"> &#160;Bootstrap</text>
<polygon fill="#fdb462" stroke="transparent" points="310,-10 310,-30 330,-30 330,-10 310,-10"/>
<text text-anchor="start" x="333.6732" y="-15.4" font-family="sans-serif" font-size="14.00" fill="#000000"> &#160;Providers</text>
<polygon fill="#fb8072" stroke="transparent" points="406,-10 406,-30 426,-30 426,-10 406,-10"/>
<text text-anchor="start" x="429.7258" y="-15.4" font-family="sans-serif" font-size="14.00" fill="#000000"> &#160;Exports</text>
<g id="clust1" class="cluster">
<title>cluster_SharedModule</title>
<polygon fill="none" stroke="#000000" stroke-dasharray="1,5" points="52,-70 52,-268 444,-268 444,-70 52,-70"/>
</g>
<g id="clust3" class="cluster">
<title>cluster_SharedModule_imports</title>
<polygon fill="none" stroke="#000000" points="64,-78 64,-130 432,-130 432,-78 64,-78"/>
</g>
<g id="clust4" class="cluster">
<title>cluster_SharedModule_exports</title>
<polygon fill="none" stroke="#000000" points="60,-208 60,-260 436,-260 436,-208 60,-208"/>
</g>
<!-- GridModule -->
<g id="node1" class="node">
<title>GridModule</title>
<polygon fill="#8dd3c7" stroke="#000000" points="423.7079,-122 420.7079,-126 399.7079,-126 396.7079,-122 338.2921,-122 338.2921,-86 423.7079,-86 423.7079,-122"/>
<text text-anchor="middle" x="381" y="-99.8" font-family="Times,serif" font-size="14.00" fill="#000000">GridModule</text>
</g>
<!-- SharedModule -->
<g id="node4" class="node">
<title>SharedModule</title>
<polygon fill="#8dd3c7" stroke="#000000" points="314.4231,-187 311.4231,-191 290.4231,-191 287.4231,-187 215.5769,-187 215.5769,-151 314.4231,-151 314.4231,-187"/>
<text text-anchor="middle" x="265" y="-164.8" font-family="Times,serif" font-size="14.00" fill="#000000">SharedModule</text>
</g>
<!-- GridModule&#45;&gt;SharedModule -->
<g id="edge1" class="edge">
<title>GridModule&#45;&gt;SharedModule</title>
<path fill="none" stroke="#000000" d="M395.6179,-122.0225C395.6179,-139.3734 395.6179,-163 395.6179,-163 395.6179,-163 324.381,-163 324.381,-163"/>
<polygon fill="#000000" stroke="#000000" points="324.3811,-159.5001 314.381,-163 324.381,-166.5001 324.3811,-159.5001"/>
</g>
<!-- TimelineModule -->
<g id="node2" class="node">
<title>TimelineModule</title>
<polygon fill="#8dd3c7" stroke="#000000" points="320.094,-122 317.094,-126 296.094,-126 293.094,-122 209.906,-122 209.906,-86 320.094,-86 320.094,-122"/>
<text text-anchor="middle" x="265" y="-99.8" font-family="Times,serif" font-size="14.00" fill="#000000">TimelineModule</text>
</g>
<!-- TimelineModule&#45;&gt;SharedModule -->
<g id="edge2" class="edge">
<title>TimelineModule&#45;&gt;SharedModule</title>
<path fill="none" stroke="#000000" d="M265,-122.1061C265,-122.1061 265,-140.991 265,-140.991"/>
<polygon fill="#000000" stroke="#000000" points="261.5001,-140.9909 265,-150.991 268.5001,-140.991 261.5001,-140.9909"/>
</g>
<!-- PaginationModule -->
<g id="node3" class="node">
<title>PaginationModule</title>
<polygon fill="#8dd3c7" stroke="#000000" points="191.9342,-122 188.9342,-126 167.9342,-126 164.9342,-122 72.0658,-122 72.0658,-86 191.9342,-86 191.9342,-122"/>
<text text-anchor="middle" x="132" y="-99.8" font-family="Times,serif" font-size="14.00" fill="#000000">PaginationModule</text>
</g>
<!-- PaginationModule&#45;&gt;SharedModule -->
<g id="edge3" class="edge">
<title>PaginationModule&#45;&gt;SharedModule</title>
<path fill="none" stroke="#000000" d="M151.0722,-122.0225C151.0722,-139.3734 151.0722,-163 151.0722,-163 151.0722,-163 205.6922,-163 205.6922,-163"/>
<polygon fill="#000000" stroke="#000000" points="205.6923,-166.5001 215.6922,-163 205.6922,-159.5001 205.6923,-166.5001"/>
</g>
<!-- GridModule  -->
<g id="node5" class="node">
<title>GridModule </title>
<polygon fill="#fb8072" stroke="#000000" points="428.2081,-252 339.7919,-252 339.7919,-216 428.2081,-216 428.2081,-252"/>
<text text-anchor="middle" x="384" y="-229.8" font-family="Times,serif" font-size="14.00" fill="#000000">GridModule </text>
</g>
<!-- SharedModule&#45;&gt;GridModule  -->
<g id="edge4" class="edge">
<title>SharedModule&#45;&gt;GridModule </title>
<path fill="none" stroke="#000000" stroke-dasharray="5,2" d="M314.2118,-175C340.5517,-175 367.6321,-175 367.6321,-175 367.6321,-175 367.6321,-205.9775 367.6321,-205.9775"/>
<polygon fill="#000000" stroke="#000000" points="364.1322,-205.9774 367.6321,-215.9775 371.1322,-205.9775 364.1322,-205.9774"/>
</g>
<!-- TimelineModule  -->
<g id="node6" class="node">
<title>TimelineModule </title>
<polygon fill="#fb8072" stroke="#000000" points="321.5947,-252 208.4053,-252 208.4053,-216 321.5947,-216 321.5947,-252"/>
<text text-anchor="middle" x="265" y="-229.8" font-family="Times,serif" font-size="14.00" fill="#000000">TimelineModule </text>
</g>
<!-- SharedModule&#45;&gt;TimelineModule  -->
<g id="edge5" class="edge">
<title>SharedModule&#45;&gt;TimelineModule </title>
<path fill="none" stroke="#000000" stroke-dasharray="5,2" d="M265,-187.1061C265,-187.1061 265,-205.991 265,-205.991"/>
<polygon fill="#000000" stroke="#000000" points="261.5001,-205.9909 265,-215.991 268.5001,-205.991 261.5001,-205.9909"/>
</g>
<!-- PaginationModule  -->
<g id="node7" class="node">
<title>PaginationModule </title>
<polygon fill="#fb8072" stroke="#000000" points="190.4334,-252 67.5666,-252 67.5666,-216 190.4334,-216 190.4334,-252"/>
<text text-anchor="middle" x="129" y="-229.8" font-family="Times,serif" font-size="14.00" fill="#000000">PaginationModule </text>
</g>
<!-- SharedModule&#45;&gt;PaginationModule  -->
<g id="edge6" class="edge">
<title>SharedModule&#45;&gt;PaginationModule </title>
<path fill="none" stroke="#000000" stroke-dasharray="5,2" d="M215.6439,-175C170.823,-175 111.6778,-175 111.6778,-175 111.6778,-175 111.6778,-205.9775 111.6778,-205.9775"/>
<polygon fill="#000000" stroke="#000000" points="108.1779,-205.9774 111.6778,-215.9775 115.1779,-205.9775 108.1779,-205.9774"/>
</g>
</g>
</svg>
