<?xml version="1.0" encoding="UTF-8" standalone="no"?>
<!DOCTYPE svg PUBLIC "-//W3C//DTD SVG 1.1//EN"
 "http://www.w3.org/Graphics/SVG/1.1/DTD/svg11.dtd">
<!-- Generated by graphviz version 2.40.1 (20161225.0304)
 -->
<!-- Title: dependencies Pages: 1 -->
<svg width="504pt" height="284pt"
 viewBox="0.00 0.00 504.00 284.00" xmlns="http://www.w3.org/2000/svg" xmlns:xlink="http://www.w3.org/1999/xlink">
<g id="graph0" class="graph" transform="scale(1 1) rotate(0) translate(4 280)">
<title>dependencies</title>
<polygon fill="#ffffff" stroke="transparent" points="-4,4 -4,-280 500,-280 500,4 -4,4"/>
<text text-anchor="start" x="227.0091" y="-42.4" font-family="sans-serif" font-weight="bold" font-size="14.00" fill="#000000">Legend</text>
<polygon fill="#ffffb3" stroke="transparent" points="14,-10 14,-30 34,-30 34,-10 14,-10"/>
<text text-anchor="start" x="37.629" y="-15.4" font-family="sans-serif" font-size="14.00" fill="#000000"> &#160;Declarations</text>
<polygon fill="#8dd3c7" stroke="transparent" points="127,-10 127,-30 147,-30 147,-10 127,-10"/>
<text text-anchor="start" x="150.7251" y="-15.4" font-family="sans-serif" font-size="14.00" fill="#000000"> &#160;Module</text>
<polygon fill="#80b1d3" stroke="transparent" points="213,-10 213,-30 233,-30 233,-10 213,-10"/>
<text text-anchor="start" x="236.7812" y="-15.4" font-family="sans-serif" font-size="14.00" fill="#000000"> &#160;Bootstrap</text>
<polygon fill="#fdb462" stroke="transparent" points="310,-10 310,-30 330,-30 330,-10 310,-10"/>
<text text-anchor="start" x="333.6732" y="-15.4" font-family="sans-serif" font-size="14.00" fill="#000000"> &#160;Providers</text>
<polygon fill="#fb8072" stroke="transparent" points="406,-10 406,-30 426,-30 426,-10 406,-10"/>
<text text-anchor="start" x="429.7258" y="-15.4" font-family="sans-serif" font-size="14.00" fill="#000000"> &#160;Exports</text>
<g id="clust1" class="cluster">
<title>cluster_GridModule</title>
<polygon fill="none" stroke="#000000" stroke-dasharray="1,5" points="59.5,-70 59.5,-268 436.5,-268 436.5,-70 59.5,-70"/>
</g>
<g id="clust2" class="cluster">
<title>cluster_GridModule_declarations</title>
<polygon fill="none" stroke="#000000" points="72.5,-78 72.5,-130 422.5,-130 422.5,-78 72.5,-78"/>
</g>
<g id="clust7" class="cluster">
<title>cluster_GridModule_exports</title>
<polygon fill="none" stroke="#000000" points="67.5,-208 67.5,-260 428.5,-260 428.5,-208 67.5,-208"/>
</g>
<!-- RowComponent -->
<g id="node1" class="node">
<title>RowComponent</title>
<polygon fill="#ffffb3" stroke="#000000" points="414.2758,-122 306.7242,-122 306.7242,-86 414.2758,-86 414.2758,-122"/>
<text text-anchor="middle" x="360.5" y="-99.8" font-family="Times,serif" font-size="14.00" fill="#000000">RowComponent</text>
</g>
<!-- GridModule -->
<g id="node4" class="node">
<title>GridModule</title>
<polygon fill="#8dd3c7" stroke="#000000" points="287.2079,-187 284.2079,-191 263.2079,-191 260.2079,-187 201.7921,-187 201.7921,-151 287.2079,-151 287.2079,-187"/>
<text text-anchor="middle" x="244.5" y="-164.8" font-family="Times,serif" font-size="14.00" fill="#000000">GridModule</text>
</g>
<!-- RowComponent&#45;&gt;GridModule -->
<g id="edge1" class="edge">
<title>RowComponent&#45;&gt;GridModule</title>
<path fill="none" stroke="#000000" d="M379.2126,-122.0225C379.2126,-139.3734 379.2126,-163 379.2126,-163 379.2126,-163 297.1239,-163 297.1239,-163"/>
<polygon fill="#000000" stroke="#000000" points="297.1239,-159.5001 287.1239,-163 297.1239,-166.5001 297.1239,-159.5001"/>
</g>
<!-- ColDirective -->
<g id="node2" class="node">
<title>ColDirective</title>
<polygon fill="#ffffb3" stroke="#000000" points="288.8105,-122 200.1895,-122 200.1895,-86 288.8105,-86 288.8105,-122"/>
<text text-anchor="middle" x="244.5" y="-99.8" font-family="Times,serif" font-size="14.00" fill="#000000">ColDirective</text>
</g>
<!-- ColDirective&#45;&gt;GridModule -->
<g id="edge2" class="edge">
<title>ColDirective&#45;&gt;GridModule</title>
<path fill="none" stroke="#000000" d="M244.5,-122.1061C244.5,-122.1061 244.5,-140.991 244.5,-140.991"/>
<polygon fill="#000000" stroke="#000000" points="241.0001,-140.9909 244.5,-150.991 248.0001,-140.991 241.0001,-140.9909"/>
</g>
<!-- ColComponent -->
<g id="node3" class="node">
<title>ColComponent</title>
<polygon fill="#ffffb3" stroke="#000000" points="182.0606,-122 80.9394,-122 80.9394,-86 182.0606,-86 182.0606,-122"/>
<text text-anchor="middle" x="131.5" y="-99.8" font-family="Times,serif" font-size="14.00" fill="#000000">ColComponent</text>
</g>
<!-- ColComponent&#45;&gt;GridModule -->
<g id="edge3" class="edge">
<title>ColComponent&#45;&gt;GridModule</title>
<path fill="none" stroke="#000000" d="M147.5933,-122.0225C147.5933,-139.3734 147.5933,-163 147.5933,-163 147.5933,-163 191.7132,-163 191.7132,-163"/>
<polygon fill="#000000" stroke="#000000" points="191.7132,-166.5001 201.7132,-163 191.7132,-159.5001 191.7132,-166.5001"/>
</g>
<!-- RowComponent  -->
<g id="node5" class="node">
<title>RowComponent </title>
<polygon fill="#fb8072" stroke="#000000" points="420.2759,-252 308.7241,-252 308.7241,-216 420.2759,-216 420.2759,-252"/>
<text text-anchor="middle" x="364.5" y="-229.8" font-family="Times,serif" font-size="14.00" fill="#000000">RowComponent </text>
</g>
<!-- GridModule&#45;&gt;RowComponent  -->
<g id="edge4" class="edge">
<title>GridModule&#45;&gt;RowComponent </title>
<path fill="none" stroke="#000000" stroke-dasharray="5,2" d="M287.2905,-175C314.2685,-175 344.0374,-175 344.0374,-175 344.0374,-175 344.0374,-205.9775 344.0374,-205.9775"/>
<polygon fill="#000000" stroke="#000000" points="340.5375,-205.9774 344.0374,-215.9775 347.5375,-205.9775 340.5375,-205.9774"/>
</g>
<!-- ColDirective  -->
<g id="node6" class="node">
<title>ColDirective </title>
<polygon fill="#fb8072" stroke="#000000" points="290.3102,-252 198.6898,-252 198.6898,-216 290.3102,-216 290.3102,-252"/>
<text text-anchor="middle" x="244.5" y="-229.8" font-family="Times,serif" font-size="14.00" fill="#000000">ColDirective </text>
</g>
<!-- GridModule&#45;&gt;ColDirective  -->
<g id="edge5" class="edge">
<title>GridModule&#45;&gt;ColDirective </title>
<path fill="none" stroke="#000000" stroke-dasharray="5,2" d="M244.5,-187.1061C244.5,-187.1061 244.5,-205.991 244.5,-205.991"/>
<polygon fill="#000000" stroke="#000000" points="241.0001,-205.9909 244.5,-215.991 248.0001,-205.991 241.0001,-205.9909"/>
</g>
<!-- ColComponent  -->
<g id="node7" class="node">
<title>ColComponent </title>
<polygon fill="#fb8072" stroke="#000000" points="181.0596,-252 75.9404,-252 75.9404,-216 181.0596,-216 181.0596,-252"/>
<text text-anchor="middle" x="128.5" y="-229.8" font-family="Times,serif" font-size="14.00" fill="#000000">ColComponent </text>
</g>
<!-- GridModule&#45;&gt;ColComponent  -->
<g id="edge6" class="edge">
<title>GridModule&#45;&gt;ColComponent </title>
<path fill="none" stroke="#000000" stroke-dasharray="5,2" d="M201.8207,-175C163.8071,-175 114.1567,-175 114.1567,-175 114.1567,-175 114.1567,-205.9775 114.1567,-205.9775"/>
<polygon fill="#000000" stroke="#000000" points="110.6568,-205.9774 114.1567,-215.9775 117.6568,-205.9775 110.6568,-205.9774"/>
</g>
</g>
</svg>
