<?xml version="1.0" encoding="UTF-8" standalone="no"?>
<!DOCTYPE svg PUBLIC "-//W3C//DTD SVG 1.1//EN"
 "http://www.w3.org/Graphics/SVG/1.1/DTD/svg11.dtd">
<!-- Generated by graphviz version 2.40.1 (20161225.0304)
 -->
<!-- Title: dependencies Pages: 1 -->
<svg width="504pt" height="211pt"
 viewBox="0.00 0.00 504.00 211.00" xmlns="http://www.w3.org/2000/svg" xmlns:xlink="http://www.w3.org/1999/xlink">
<g id="graph0" class="graph" transform="scale(1 1) rotate(0) translate(4 207)">
<title>dependencies</title>
<polygon fill="#ffffff" stroke="transparent" points="-4,4 -4,-207 500,-207 500,4 -4,4"/>
<text text-anchor="start" x="227.0091" y="-42.4" font-family="sans-serif" font-weight="bold" font-size="14.00" fill="#000000">Legend</text>
<polygon fill="#ffffb3" stroke="transparent" points="14,-10 14,-30 34,-30 34,-10 14,-10"/>
<text text-anchor="start" x="37.629" y="-15.4" font-family="sans-serif" font-size="14.00" fill="#000000"> &#160;Declarations</text>
<polygon fill="#8dd3c7" stroke="transparent" points="127,-10 127,-30 147,-30 147,-10 127,-10"/>
<text text-anchor="start" x="150.7251" y="-15.4" font-family="sans-serif" font-size="14.00" fill="#000000"> &#160;Module</text>
<polygon fill="#80b1d3" stroke="transparent" points="213,-10 213,-30 233,-30 233,-10 213,-10"/>
<text text-anchor="start" x="236.7812" y="-15.4" font-family="sans-serif" font-size="14.00" fill="#000000"> &#160;Bootstrap</text>
<polygon fill="#fdb462" stroke="transparent" points="310,-10 310,-30 330,-30 330,-10 310,-10"/>
<text text-anchor="start" x="333.6732" y="-15.4" font-family="sans-serif" font-size="14.00" fill="#000000"> &#160;Providers</text>
<polygon fill="#fb8072" stroke="transparent" points="406,-10 406,-30 426,-30 426,-10 406,-10"/>
<text text-anchor="start" x="429.7258" y="-15.4" font-family="sans-serif" font-size="14.00" fill="#000000"> &#160;Exports</text>
<g id="clust1" class="cluster">
<title>cluster_EssayModule</title>
<polygon fill="none" stroke="#000000" stroke-dasharray="1,5" points="119,-70 119,-195 377,-195 377,-70 119,-70"/>
</g>
<g id="clust2" class="cluster">
<title>cluster_EssayModule_declarations</title>
<polygon fill="none" stroke="#000000" points="239,-78 239,-130 369,-130 369,-78 239,-78"/>
</g>
<g id="clust4" class="cluster">
<title>cluster_EssayModule_imports</title>
<polygon fill="none" stroke="#000000" points="127,-78 127,-130 231,-130 231,-78 127,-78"/>
</g>
<!-- EssayComponent -->
<g id="node1" class="node">
<title>EssayComponent</title>
<polygon fill="#ffffb3" stroke="#000000" points="360.9888,-122 247.0112,-122 247.0112,-86 360.9888,-86 360.9888,-122"/>
<text text-anchor="middle" x="304" y="-99.8" font-family="Times,serif" font-size="14.00" fill="#000000">EssayComponent</text>
</g>
<!-- EssayModule -->
<g id="node2" class="node">
<title>EssayModule</title>
<polygon fill="#8dd3c7" stroke="#000000" points="287.2064,-187 284.2064,-191 263.2064,-191 260.2064,-187 194.7936,-187 194.7936,-151 287.2064,-151 287.2064,-187"/>
<text text-anchor="middle" x="241" y="-164.8" font-family="Times,serif" font-size="14.00" fill="#000000">EssayModule</text>
</g>
<!-- EssayComponent&#45;&gt;EssayModule -->
<g id="edge1" class="edge">
<title>EssayComponent&#45;&gt;EssayModule</title>
<path fill="none" stroke="#000000" d="M267.0544,-122.1061C267.0544,-122.1061 267.0544,-140.991 267.0544,-140.991"/>
<polygon fill="#000000" stroke="#000000" points="263.5544,-140.9909 267.0544,-150.991 270.5544,-140.991 263.5544,-140.9909"/>
</g>
<!-- EssayRoutes -->
<g id="node3" class="node">
<title>EssayRoutes</title>
<polygon fill="#8dd3c7" stroke="#000000" points="222.544,-122 219.544,-126 198.544,-126 195.544,-122 135.456,-122 135.456,-86 222.544,-86 222.544,-122"/>
<text text-anchor="middle" x="179" y="-99.8" font-family="Times,serif" font-size="14.00" fill="#000000">EssayRoutes</text>
</g>
<!-- EssayRoutes&#45;&gt;EssayModule -->
<g id="edge2" class="edge">
<title>EssayRoutes&#45;&gt;EssayModule</title>
<path fill="none" stroke="#000000" d="M208.8342,-122.1061C208.8342,-122.1061 208.8342,-140.991 208.8342,-140.991"/>
<polygon fill="#000000" stroke="#000000" points="205.3342,-140.9909 208.8342,-150.991 212.3342,-140.991 205.3342,-140.9909"/>
</g>
</g>
</svg>
