<?xml version="1.0" encoding="UTF-8" standalone="no"?>
<!DOCTYPE svg PUBLIC "-//W3C//DTD SVG 1.1//EN"
 "http://www.w3.org/Graphics/SVG/1.1/DTD/svg11.dtd">
<!-- Generated by graphviz version 2.40.1 (20161225.0304)
 -->
<!-- Title: dependencies Pages: 1 -->
<svg width="518pt" height="284pt"
 viewBox="0.00 0.00 518.00 284.00" xmlns="http://www.w3.org/2000/svg" xmlns:xlink="http://www.w3.org/1999/xlink">
<g id="graph0" class="graph" transform="scale(1 1) rotate(0) translate(4 280)">
<title>dependencies</title>
<polygon fill="#ffffff" stroke="transparent" points="-4,4 -4,-280 514,-280 514,4 -4,4"/>
<text text-anchor="start" x="234.0091" y="-42.4" font-family="sans-serif" font-weight="bold" font-size="14.00" fill="#000000">Legend</text>
<polygon fill="#ffffb3" stroke="transparent" points="21,-10 21,-30 41,-30 41,-10 21,-10"/>
<text text-anchor="start" x="44.629" y="-15.4" font-family="sans-serif" font-size="14.00" fill="#000000"> &#160;Declarations</text>
<polygon fill="#8dd3c7" stroke="transparent" points="134,-10 134,-30 154,-30 154,-10 134,-10"/>
<text text-anchor="start" x="157.7251" y="-15.4" font-family="sans-serif" font-size="14.00" fill="#000000"> &#160;Module</text>
<polygon fill="#80b1d3" stroke="transparent" points="220,-10 220,-30 240,-30 240,-10 220,-10"/>
<text text-anchor="start" x="243.7812" y="-15.4" font-family="sans-serif" font-size="14.00" fill="#000000"> &#160;Bootstrap</text>
<polygon fill="#fdb462" stroke="transparent" points="317,-10 317,-30 337,-30 337,-10 317,-10"/>
<text text-anchor="start" x="340.6732" y="-15.4" font-family="sans-serif" font-size="14.00" fill="#000000"> &#160;Providers</text>
<polygon fill="#fb8072" stroke="transparent" points="413,-10 413,-30 433,-30 433,-10 413,-10"/>
<text text-anchor="start" x="436.7258" y="-15.4" font-family="sans-serif" font-size="14.00" fill="#000000"> &#160;Exports</text>
<g id="clust1" class="cluster">
<title>cluster_TimelineModule</title>
<polygon fill="none" stroke="#000000" stroke-dasharray="1,5" points="8,-70 8,-268 502,-268 502,-70 8,-70"/>
</g>
<g id="clust2" class="cluster">
<title>cluster_TimelineModule_declarations</title>
<polygon fill="none" stroke="#000000" points="22,-78 22,-130 488,-130 488,-78 22,-78"/>
</g>
<g id="clust7" class="cluster">
<title>cluster_TimelineModule_exports</title>
<polygon fill="none" stroke="#000000" points="16,-208 16,-260 494,-260 494,-208 16,-208"/>
</g>
<!-- TimeLineComponent -->
<g id="node1" class="node">
<title>TimeLineComponent</title>
<polygon fill="#ffffb3" stroke="#000000" points="480.0394,-122 343.9606,-122 343.9606,-86 480.0394,-86 480.0394,-122"/>
<text text-anchor="middle" x="412" y="-99.8" font-family="Times,serif" font-size="14.00" fill="#000000">TimeLineComponent</text>
</g>
<!-- TimelineModule -->
<g id="node4" class="node">
<title>TimelineModule</title>
<polygon fill="#8dd3c7" stroke="#000000" points="300.094,-187 297.094,-191 276.094,-191 273.094,-187 189.906,-187 189.906,-151 300.094,-151 300.094,-187"/>
<text text-anchor="middle" x="245" y="-164.8" font-family="Times,serif" font-size="14.00" fill="#000000">TimelineModule</text>
</g>
<!-- TimeLineComponent&#45;&gt;TimelineModule -->
<g id="edge1" class="edge">
<title>TimeLineComponent&#45;&gt;TimelineModule</title>
<path fill="none" stroke="#000000" d="M435.5064,-122.0225C435.5064,-139.3734 435.5064,-163 435.5064,-163 435.5064,-163 310.1024,-163 310.1024,-163"/>
<polygon fill="#000000" stroke="#000000" points="310.1024,-159.5001 300.1024,-163 310.1023,-166.5001 310.1024,-159.5001"/>
</g>
<!-- TimeLineItemComponent -->
<g id="node2" class="node">
<title>TimeLineItemComponent</title>
<polygon fill="#ffffb3" stroke="#000000" points="326.1951,-122 163.8049,-122 163.8049,-86 326.1951,-86 326.1951,-122"/>
<text text-anchor="middle" x="245" y="-99.8" font-family="Times,serif" font-size="14.00" fill="#000000">TimeLineItemComponent</text>
</g>
<!-- TimeLineItemComponent&#45;&gt;TimelineModule -->
<g id="edge2" class="edge">
<title>TimeLineItemComponent&#45;&gt;TimelineModule</title>
<path fill="none" stroke="#000000" d="M245,-122.1061C245,-122.1061 245,-140.991 245,-140.991"/>
<polygon fill="#000000" stroke="#000000" points="241.5001,-140.9909 245,-150.991 248.5001,-140.991 241.5001,-140.9909"/>
</g>
<!-- VisualInDirective -->
<g id="node3" class="node">
<title>VisualInDirective</title>
<polygon fill="#ffffb3" stroke="#000000" points="146.2908,-122 29.7092,-122 29.7092,-86 146.2908,-86 146.2908,-122"/>
<text text-anchor="middle" x="88" y="-99.8" font-family="Times,serif" font-size="14.00" fill="#000000">VisualInDirective</text>
</g>
<!-- VisualInDirective&#45;&gt;TimelineModule -->
<g id="edge3" class="edge">
<title>VisualInDirective&#45;&gt;TimelineModule</title>
<path fill="none" stroke="#000000" d="M105.8817,-122.0225C105.8817,-139.3734 105.8817,-163 105.8817,-163 105.8817,-163 179.617,-163 179.617,-163"/>
<polygon fill="#000000" stroke="#000000" points="179.6171,-166.5001 189.617,-163 179.617,-159.5001 179.6171,-166.5001"/>
</g>
<!-- TimeLineComponent  -->
<g id="node5" class="node">
<title>TimeLineComponent </title>
<polygon fill="#fb8072" stroke="#000000" points="486.0386,-252 345.9614,-252 345.9614,-216 486.0386,-216 486.0386,-252"/>
<text text-anchor="middle" x="416" y="-229.8" font-family="Times,serif" font-size="14.00" fill="#000000">TimeLineComponent </text>
</g>
<!-- TimelineModule&#45;&gt;TimeLineComponent  -->
<g id="edge4" class="edge">
<title>TimelineModule&#45;&gt;TimeLineComponent </title>
<path fill="none" stroke="#000000" stroke-dasharray="5,2" d="M300.0994,-175C341.3714,-175 390.7436,-175 390.7436,-175 390.7436,-175 390.7436,-205.9775 390.7436,-205.9775"/>
<polygon fill="#000000" stroke="#000000" points="387.2437,-205.9774 390.7436,-215.9775 394.2437,-205.9775 387.2437,-205.9774"/>
</g>
<!-- TimeLineItemComponent  -->
<g id="node6" class="node">
<title>TimeLineItemComponent </title>
<polygon fill="#fb8072" stroke="#000000" points="327.6953,-252 162.3047,-252 162.3047,-216 327.6953,-216 327.6953,-252"/>
<text text-anchor="middle" x="245" y="-229.8" font-family="Times,serif" font-size="14.00" fill="#000000">TimeLineItemComponent </text>
</g>
<!-- TimelineModule&#45;&gt;TimeLineItemComponent  -->
<g id="edge5" class="edge">
<title>TimelineModule&#45;&gt;TimeLineItemComponent </title>
<path fill="none" stroke="#000000" stroke-dasharray="5,2" d="M245,-187.1061C245,-187.1061 245,-205.991 245,-205.991"/>
<polygon fill="#000000" stroke="#000000" points="241.5001,-205.9909 245,-215.991 248.5001,-205.991 241.5001,-205.9909"/>
</g>
<!-- VisualInDirective  -->
<g id="node7" class="node">
<title>VisualInDirective </title>
<polygon fill="#fb8072" stroke="#000000" points="143.7906,-252 24.2094,-252 24.2094,-216 143.7906,-216 143.7906,-252"/>
<text text-anchor="middle" x="84" y="-229.8" font-family="Times,serif" font-size="14.00" fill="#000000">VisualInDirective </text>
</g>
<!-- TimelineModule&#45;&gt;VisualInDirective  -->
<g id="edge6" class="edge">
<title>TimelineModule&#45;&gt;VisualInDirective </title>
<path fill="none" stroke="#000000" stroke-dasharray="5,2" d="M189.9254,-175C137.928,-175 67.8683,-175 67.8683,-175 67.8683,-175 67.8683,-205.9775 67.8683,-205.9775"/>
<polygon fill="#000000" stroke="#000000" points="64.3684,-205.9774 67.8683,-215.9775 71.3684,-205.9775 64.3684,-205.9774"/>
</g>
</g>
</svg>
