<?xml version="1.0" encoding="UTF-8" standalone="no"?>
<!DOCTYPE svg PUBLIC "-//W3C//DTD SVG 1.1//EN"
 "http://www.w3.org/Graphics/SVG/1.1/DTD/svg11.dtd">
<!-- Generated by graphviz version 2.40.1 (20161225.0304)
 -->
<!-- Title: dependencies Pages: 1 -->
<svg width="1638pt" height="284pt"
 viewBox="0.00 0.00 1638.00 284.00" xmlns="http://www.w3.org/2000/svg" xmlns:xlink="http://www.w3.org/1999/xlink">
<g id="graph0" class="graph" transform="scale(1 1) rotate(0) translate(4 280)">
<title>dependencies</title>
<polygon fill="#ffffff" stroke="transparent" points="-4,4 -4,-280 1634,-280 1634,4 -4,4"/>
<text text-anchor="start" x="794.0091" y="-42.4" font-family="sans-serif" font-weight="bold" font-size="14.00" fill="#000000">Legend</text>
<polygon fill="#ffffb3" stroke="transparent" points="581,-10 581,-30 601,-30 601,-10 581,-10"/>
<text text-anchor="start" x="604.629" y="-15.4" font-family="sans-serif" font-size="14.00" fill="#000000"> &#160;Declarations</text>
<polygon fill="#8dd3c7" stroke="transparent" points="694,-10 694,-30 714,-30 714,-10 694,-10"/>
<text text-anchor="start" x="717.7251" y="-15.4" font-family="sans-serif" font-size="14.00" fill="#000000"> &#160;Module</text>
<polygon fill="#80b1d3" stroke="transparent" points="780,-10 780,-30 800,-30 800,-10 780,-10"/>
<text text-anchor="start" x="803.7812" y="-15.4" font-family="sans-serif" font-size="14.00" fill="#000000"> &#160;Bootstrap</text>
<polygon fill="#fdb462" stroke="transparent" points="877,-10 877,-30 897,-30 897,-10 877,-10"/>
<text text-anchor="start" x="900.6732" y="-15.4" font-family="sans-serif" font-size="14.00" fill="#000000"> &#160;Providers</text>
<polygon fill="#fb8072" stroke="transparent" points="973,-10 973,-30 993,-30 993,-10 973,-10"/>
<text text-anchor="start" x="996.7258" y="-15.4" font-family="sans-serif" font-size="14.00" fill="#000000"> &#160;Exports</text>
<g id="clust1" class="cluster">
<title>cluster_HomeModule</title>
<polygon fill="none" stroke="#000000" stroke-dasharray="1,5" points="8,-70 8,-268 1622,-268 1622,-70 8,-70"/>
</g>
<g id="clust2" class="cluster">
<title>cluster_HomeModule_declarations</title>
<polygon fill="none" stroke="#000000" points="295,-78 295,-130 1614,-130 1614,-78 295,-78"/>
</g>
<g id="clust12" class="cluster">
<title>cluster_HomeModule_imports</title>
<polygon fill="none" stroke="#000000" points="16,-78 16,-130 287,-130 287,-78 16,-78"/>
</g>
<g id="clust13" class="cluster">
<title>cluster_HomeModule_exports</title>
<polygon fill="none" stroke="#000000" points="724,-208 724,-260 860,-260 860,-208 724,-208"/>
</g>
<!-- HomeComponent -->
<g id="node1" class="node">
<title>HomeComponent</title>
<polygon fill="#ffffb3" stroke="#000000" points="1605.5451,-122 1490.4549,-122 1490.4549,-86 1605.5451,-86 1605.5451,-122"/>
<text text-anchor="middle" x="1548" y="-99.8" font-family="Times,serif" font-size="14.00" fill="#000000">HomeComponent</text>
</g>
<!-- HomeModule -->
<g id="node10" class="node">
<title>HomeModule</title>
<polygon fill="#8dd3c7" stroke="#000000" points="838.7619,-187 835.7619,-191 814.7619,-191 811.7619,-187 745.2381,-187 745.2381,-151 838.7619,-151 838.7619,-187"/>
<text text-anchor="middle" x="792" y="-164.8" font-family="Times,serif" font-size="14.00" fill="#000000">HomeModule</text>
</g>
<!-- HomeComponent&#45;&gt;HomeModule -->
<g id="edge1" class="edge">
<title>HomeComponent&#45;&gt;HomeModule</title>
<path fill="none" stroke="#000000" d="M1548,-122.2479C1548,-145.0179 1548,-181 1548,-181 1548,-181 849.0055,-181 849.0055,-181"/>
<polygon fill="#000000" stroke="#000000" points="849.0056,-177.5001 839.0055,-181 849.0055,-184.5001 849.0056,-177.5001"/>
</g>
<!-- ResumeComponent -->
<g id="node2" class="node">
<title>ResumeComponent</title>
<polygon fill="#ffffb3" stroke="#000000" points="1472.4341,-122 1345.5659,-122 1345.5659,-86 1472.4341,-86 1472.4341,-122"/>
<text text-anchor="middle" x="1409" y="-99.8" font-family="Times,serif" font-size="14.00" fill="#000000">ResumeComponent</text>
</g>
<!-- ResumeComponent&#45;&gt;HomeModule -->
<g id="edge2" class="edge">
<title>ResumeComponent&#45;&gt;HomeModule</title>
<path fill="none" stroke="#000000" d="M1409,-122.2843C1409,-143.3211 1409,-175 1409,-175 1409,-175 848.8817,-175 848.8817,-175"/>
<polygon fill="#000000" stroke="#000000" points="848.8817,-171.5001 838.8817,-175 848.8817,-178.5001 848.8817,-171.5001"/>
</g>
<!-- MyInfoComponent -->
<g id="node3" class="node">
<title>MyInfoComponent</title>
<polygon fill="#ffffb3" stroke="#000000" points="1328.0982,-122 1203.9018,-122 1203.9018,-86 1328.0982,-86 1328.0982,-122"/>
<text text-anchor="middle" x="1266" y="-99.8" font-family="Times,serif" font-size="14.00" fill="#000000">MyInfoComponent</text>
</g>
<!-- MyInfoComponent&#45;&gt;HomeModule -->
<g id="edge3" class="edge">
<title>MyInfoComponent&#45;&gt;HomeModule</title>
<path fill="none" stroke="#000000" d="M1266,-122.1061C1266,-141.3391 1266,-169 1266,-169 1266,-169 849.1818,-169 849.1818,-169"/>
<polygon fill="#000000" stroke="#000000" points="849.1819,-165.5001 839.1818,-169 849.1818,-172.5001 849.1819,-165.5001"/>
</g>
<!-- MyProductComponent -->
<g id="node4" class="node">
<title>MyProductComponent</title>
<polygon fill="#ffffb3" stroke="#000000" points="1186.3258,-122 1041.6742,-122 1041.6742,-86 1186.3258,-86 1186.3258,-122"/>
<text text-anchor="middle" x="1114" y="-99.8" font-family="Times,serif" font-size="14.00" fill="#000000">MyProductComponent</text>
</g>
<!-- MyProductComponent&#45;&gt;HomeModule -->
<g id="edge4" class="edge">
<title>MyProductComponent&#45;&gt;HomeModule</title>
<path fill="none" stroke="#000000" d="M1114,-122.0225C1114,-139.3734 1114,-163 1114,-163 1114,-163 848.8216,-163 848.8216,-163"/>
<polygon fill="#000000" stroke="#000000" points="848.8216,-159.5001 838.8216,-163 848.8215,-166.5001 848.8216,-159.5001"/>
</g>
<!-- MySkillComponent -->
<g id="node5" class="node">
<title>MySkillComponent</title>
<polygon fill="#ffffb3" stroke="#000000" points="1023.7316,-122 896.2684,-122 896.2684,-86 1023.7316,-86 1023.7316,-122"/>
<text text-anchor="middle" x="960" y="-99.8" font-family="Times,serif" font-size="14.00" fill="#000000">MySkillComponent</text>
</g>
<!-- MySkillComponent&#45;&gt;HomeModule -->
<g id="edge5" class="edge">
<title>MySkillComponent&#45;&gt;HomeModule</title>
<path fill="none" stroke="#000000" d="M960,-122.2396C960,-137.5706 960,-157 960,-157 960,-157 848.7974,-157 848.7974,-157"/>
<polygon fill="#000000" stroke="#000000" points="848.7974,-153.5001 838.7974,-157 848.7973,-160.5001 848.7974,-153.5001"/>
</g>
<!-- ResumeProCardComponent -->
<g id="node6" class="node">
<title>ResumeProCardComponent</title>
<polygon fill="#ffffb3" stroke="#000000" points="878.5884,-122 705.4116,-122 705.4116,-86 878.5884,-86 878.5884,-122"/>
<text text-anchor="middle" x="792" y="-99.8" font-family="Times,serif" font-size="14.00" fill="#000000">ResumeProCardComponent</text>
</g>
<!-- ResumeProCardComponent&#45;&gt;HomeModule -->
<g id="edge6" class="edge">
<title>ResumeProCardComponent&#45;&gt;HomeModule</title>
<path fill="none" stroke="#000000" d="M792,-122.1061C792,-122.1061 792,-140.991 792,-140.991"/>
<polygon fill="#000000" stroke="#000000" points="788.5001,-140.9909 792,-150.991 795.5001,-140.991 788.5001,-140.9909"/>
</g>
<!-- BlogComponent -->
<g id="node7" class="node">
<title>BlogComponent</title>
<polygon fill="#ffffb3" stroke="#000000" points="687.0605,-122 578.9395,-122 578.9395,-86 687.0605,-86 687.0605,-122"/>
<text text-anchor="middle" x="633" y="-99.8" font-family="Times,serif" font-size="14.00" fill="#000000">BlogComponent</text>
</g>
<!-- BlogComponent&#45;&gt;HomeModule -->
<g id="edge7" class="edge">
<title>BlogComponent&#45;&gt;HomeModule</title>
<path fill="none" stroke="#000000" d="M633,-122.2396C633,-137.5706 633,-157 633,-157 633,-157 735.1547,-157 735.1547,-157"/>
<polygon fill="#000000" stroke="#000000" points="735.1548,-160.5001 745.1547,-157 735.1547,-153.5001 735.1548,-160.5001"/>
</g>
<!-- BlogItemComponent -->
<g id="node8" class="node">
<title>BlogItemComponent</title>
<polygon fill="#ffffb3" stroke="#000000" points="561.2162,-122 426.7838,-122 426.7838,-86 561.2162,-86 561.2162,-122"/>
<text text-anchor="middle" x="494" y="-99.8" font-family="Times,serif" font-size="14.00" fill="#000000">BlogItemComponent</text>
</g>
<!-- BlogItemComponent&#45;&gt;HomeModule -->
<g id="edge8" class="edge">
<title>BlogItemComponent&#45;&gt;HomeModule</title>
<path fill="none" stroke="#000000" d="M494,-122.0225C494,-139.3734 494,-163 494,-163 494,-163 735.1097,-163 735.1097,-163"/>
<polygon fill="#000000" stroke="#000000" points="735.1097,-166.5001 745.1097,-163 735.1096,-159.5001 735.1097,-166.5001"/>
</g>
<!-- SideComponent -->
<g id="node9" class="node">
<title>SideComponent</title>
<polygon fill="#ffffb3" stroke="#000000" points="409.2204,-122 302.7796,-122 302.7796,-86 409.2204,-86 409.2204,-122"/>
<text text-anchor="middle" x="356" y="-99.8" font-family="Times,serif" font-size="14.00" fill="#000000">SideComponent</text>
</g>
<!-- SideComponent&#45;&gt;HomeModule -->
<g id="edge9" class="edge">
<title>SideComponent&#45;&gt;HomeModule</title>
<path fill="none" stroke="#000000" d="M356,-122.1061C356,-141.3391 356,-169 356,-169 356,-169 734.9261,-169 734.9261,-169"/>
<polygon fill="#000000" stroke="#000000" points="734.9261,-172.5001 744.9261,-169 734.9261,-165.5001 734.9261,-172.5001"/>
</g>
<!-- HomeComponent  -->
<g id="node13" class="node">
<title>HomeComponent </title>
<polygon fill="#fb8072" stroke="#000000" points="851.5442,-252 732.4558,-252 732.4558,-216 851.5442,-216 851.5442,-252"/>
<text text-anchor="middle" x="792" y="-229.8" font-family="Times,serif" font-size="14.00" fill="#000000">HomeComponent </text>
</g>
<!-- HomeModule&#45;&gt;HomeComponent  -->
<g id="edge12" class="edge">
<title>HomeModule&#45;&gt;HomeComponent </title>
<path fill="none" stroke="#000000" stroke-dasharray="5,2" d="M792,-187.1061C792,-187.1061 792,-205.991 792,-205.991"/>
<polygon fill="#000000" stroke="#000000" points="788.5001,-205.9909 792,-215.991 795.5001,-205.991 788.5001,-205.9909"/>
</g>
<!-- HomeRoutingModule -->
<g id="node11" class="node">
<title>HomeRoutingModule</title>
<polygon fill="#8dd3c7" stroke="#000000" points="279.3795,-122 276.3795,-126 255.3795,-126 252.3795,-122 140.6205,-122 140.6205,-86 279.3795,-86 279.3795,-122"/>
<text text-anchor="middle" x="210" y="-99.8" font-family="Times,serif" font-size="14.00" fill="#000000">HomeRoutingModule</text>
</g>
<!-- HomeRoutingModule&#45;&gt;HomeModule -->
<g id="edge10" class="edge">
<title>HomeRoutingModule&#45;&gt;HomeModule</title>
<path fill="none" stroke="#000000" d="M210,-122.2843C210,-143.3211 210,-175 210,-175 210,-175 734.8655,-175 734.8655,-175"/>
<polygon fill="#000000" stroke="#000000" points="734.8655,-178.5001 744.8655,-175 734.8655,-171.5001 734.8655,-178.5001"/>
</g>
<!-- SharedModule -->
<g id="node12" class="node">
<title>SharedModule</title>
<polygon fill="#8dd3c7" stroke="#000000" points="122.4231,-122 119.4231,-126 98.4231,-126 95.4231,-122 23.5769,-122 23.5769,-86 122.4231,-86 122.4231,-122"/>
<text text-anchor="middle" x="73" y="-99.8" font-family="Times,serif" font-size="14.00" fill="#000000">SharedModule</text>
</g>
<!-- SharedModule&#45;&gt;HomeModule -->
<g id="edge11" class="edge">
<title>SharedModule&#45;&gt;HomeModule</title>
<path fill="none" stroke="#000000" d="M73,-122.2479C73,-145.0179 73,-181 73,-181 73,-181 735.1018,-181 735.1018,-181"/>
<polygon fill="#000000" stroke="#000000" points="735.1018,-184.5001 745.1018,-181 735.1017,-177.5001 735.1018,-184.5001"/>
</g>
</g>
</svg>
