<?xml version="1.0" encoding="UTF-8" standalone="no"?>
<!DOCTYPE svg PUBLIC "-//W3C//DTD SVG 1.1//EN"
 "http://www.w3.org/Graphics/SVG/1.1/DTD/svg11.dtd">
<!-- Generated by graphviz version 2.40.1 (20161225.0304)
 -->
<!-- Title: dependencies Pages: 1 -->
<svg width="932pt" height="284pt"
 viewBox="0.00 0.00 932.00 284.00" xmlns="http://www.w3.org/2000/svg" xmlns:xlink="http://www.w3.org/1999/xlink">
<g id="graph0" class="graph" transform="scale(1 1) rotate(0) translate(4 280)">
<title>dependencies</title>
<polygon fill="#ffffff" stroke="transparent" points="-4,4 -4,-280 928,-280 928,4 -4,4"/>
<text text-anchor="start" x="441.0091" y="-42.4" font-family="sans-serif" font-weight="bold" font-size="14.00" fill="#000000">Legend</text>
<polygon fill="#ffffb3" stroke="transparent" points="228,-10 228,-30 248,-30 248,-10 228,-10"/>
<text text-anchor="start" x="251.629" y="-15.4" font-family="sans-serif" font-size="14.00" fill="#000000"> &#160;Declarations</text>
<polygon fill="#8dd3c7" stroke="transparent" points="341,-10 341,-30 361,-30 361,-10 341,-10"/>
<text text-anchor="start" x="364.7251" y="-15.4" font-family="sans-serif" font-size="14.00" fill="#000000"> &#160;Module</text>
<polygon fill="#80b1d3" stroke="transparent" points="427,-10 427,-30 447,-30 447,-10 427,-10"/>
<text text-anchor="start" x="450.7812" y="-15.4" font-family="sans-serif" font-size="14.00" fill="#000000"> &#160;Bootstrap</text>
<polygon fill="#fdb462" stroke="transparent" points="524,-10 524,-30 544,-30 544,-10 524,-10"/>
<text text-anchor="start" x="547.6732" y="-15.4" font-family="sans-serif" font-size="14.00" fill="#000000"> &#160;Providers</text>
<polygon fill="#fb8072" stroke="transparent" points="620,-10 620,-30 640,-30 640,-10 620,-10"/>
<text text-anchor="start" x="643.7258" y="-15.4" font-family="sans-serif" font-size="14.00" fill="#000000"> &#160;Exports</text>
<g id="clust1" class="cluster">
<title>cluster_AppModule</title>
<polygon fill="none" stroke="#000000" stroke-dasharray="1,5" points="8,-70 8,-268 916,-268 916,-70 8,-70"/>
</g>
<g id="clust2" class="cluster">
<title>cluster_AppModule_declarations</title>
<polygon fill="none" stroke="#000000" points="786,-78 786,-130 908,-130 908,-78 786,-78"/>
</g>
<g id="clust4" class="cluster">
<title>cluster_AppModule_imports</title>
<polygon fill="none" stroke="#000000" points="190,-78 190,-130 778,-130 778,-78 190,-78"/>
</g>
<g id="clust5" class="cluster">
<title>cluster_AppModule_exports</title>
<polygon fill="none" stroke="#000000" points="376,-208 376,-260 494,-260 494,-208 376,-208"/>
</g>
<g id="clust6" class="cluster">
<title>cluster_AppModule_bootstrap</title>
<polygon fill="none" stroke="#000000" points="502,-208 502,-260 626,-260 626,-208 502,-208"/>
</g>
<g id="clust7" class="cluster">
<title>cluster_AppModule_providers</title>
<polygon fill="none" stroke="#000000" points="16,-78 16,-130 182,-130 182,-78 16,-78"/>
</g>
<!-- AppComponent -->
<g id="node1" class="node">
<title>AppComponent</title>
<polygon fill="#ffffb3" stroke="#000000" points="899.9399,-122 794.0601,-122 794.0601,-86 899.9399,-86 899.9399,-122"/>
<text text-anchor="middle" x="847" y="-99.8" font-family="Times,serif" font-size="14.00" fill="#000000">AppComponent</text>
</g>
<!-- AppModule -->
<g id="node2" class="node">
<title>AppModule</title>
<polygon fill="#8dd3c7" stroke="#000000" points="540.6571,-187 537.6571,-191 516.6571,-191 513.6571,-187 457.3429,-187 457.3429,-151 540.6571,-151 540.6571,-187"/>
<text text-anchor="middle" x="499" y="-164.8" font-family="Times,serif" font-size="14.00" fill="#000000">AppModule</text>
</g>
<!-- AppComponent&#45;&gt;AppModule -->
<g id="edge1" class="edge">
<title>AppComponent&#45;&gt;AppModule</title>
<path fill="none" stroke="#000000" d="M847,-122.2921C847,-144.2057 847,-178 847,-178 847,-178 550.9769,-178 550.9769,-178"/>
<polygon fill="#000000" stroke="#000000" points="550.977,-174.5001 540.9769,-178 550.9769,-181.5001 550.977,-174.5001"/>
</g>
<!-- SharedModule  -->
<g id="node8" class="node">
<title>SharedModule </title>
<polygon fill="#fb8072" stroke="#000000" points="485.9222,-252 384.0778,-252 384.0778,-216 485.9222,-216 485.9222,-252"/>
<text text-anchor="middle" x="435" y="-229.8" font-family="Times,serif" font-size="14.00" fill="#000000">SharedModule </text>
</g>
<!-- AppModule&#45;&gt;SharedModule  -->
<g id="edge7" class="edge">
<title>AppModule&#45;&gt;SharedModule </title>
<path fill="none" stroke="#000000" stroke-dasharray="5,2" d="M471.5665,-187.1061C471.5665,-187.1061 471.5665,-205.991 471.5665,-205.991"/>
<polygon fill="#000000" stroke="#000000" points="468.0665,-205.9909 471.5665,-215.991 475.0665,-205.991 468.0665,-205.9909"/>
</g>
<!-- AppComponent  -->
<g id="node9" class="node">
<title>AppComponent </title>
<polygon fill="#80b1d3" stroke="#000000" points="618.439,-252 509.561,-252 509.561,-216 618.439,-216 618.439,-252"/>
<text text-anchor="middle" x="564" y="-229.8" font-family="Times,serif" font-size="14.00" fill="#000000">AppComponent </text>
</g>
<!-- AppModule&#45;&gt;AppComponent  -->
<g id="edge8" class="edge">
<title>AppModule&#45;&gt;AppComponent </title>
<path fill="none" stroke="#000000" stroke-dasharray="1,5" d="M525.1794,-187.1061C525.1794,-187.1061 525.1794,-205.991 525.1794,-205.991"/>
<polygon fill="#000000" stroke="#000000" points="521.6794,-205.9909 525.1794,-215.991 528.6794,-205.991 521.6794,-205.9909"/>
</g>
<!-- HomeModule -->
<g id="node3" class="node">
<title>HomeModule</title>
<polygon fill="#8dd3c7" stroke="#000000" points="769.7619,-122 766.7619,-126 745.7619,-126 742.7619,-122 676.2381,-122 676.2381,-86 769.7619,-86 769.7619,-122"/>
<text text-anchor="middle" x="723" y="-99.8" font-family="Times,serif" font-size="14.00" fill="#000000">HomeModule</text>
</g>
<!-- HomeModule&#45;&gt;AppModule -->
<g id="edge2" class="edge">
<title>HomeModule&#45;&gt;AppModule</title>
<path fill="none" stroke="#000000" d="M723,-122.1061C723,-141.3391 723,-169 723,-169 723,-169 550.8699,-169 550.8699,-169"/>
<polygon fill="#000000" stroke="#000000" points="550.87,-165.5001 540.8699,-169 550.8699,-172.5001 550.87,-165.5001"/>
</g>
<!-- EssayModule -->
<g id="node4" class="node">
<title>EssayModule</title>
<polygon fill="#8dd3c7" stroke="#000000" points="658.2064,-122 655.2064,-126 634.2064,-126 631.2064,-122 565.7936,-122 565.7936,-86 658.2064,-86 658.2064,-122"/>
<text text-anchor="middle" x="612" y="-99.8" font-family="Times,serif" font-size="14.00" fill="#000000">EssayModule</text>
</g>
<!-- EssayModule&#45;&gt;AppModule -->
<g id="edge3" class="edge">
<title>EssayModule&#45;&gt;AppModule</title>
<path fill="none" stroke="#000000" d="M592.1832,-122.027C592.1832,-138.3976 592.1832,-160 592.1832,-160 592.1832,-160 550.6857,-160 550.6857,-160"/>
<polygon fill="#000000" stroke="#000000" points="550.6858,-156.5001 540.6857,-160 550.6857,-163.5001 550.6858,-156.5001"/>
</g>
<!-- SharedModule -->
<g id="node5" class="node">
<title>SharedModule</title>
<polygon fill="#8dd3c7" stroke="#000000" points="548.4231,-122 545.4231,-126 524.4231,-126 521.4231,-122 449.5769,-122 449.5769,-86 548.4231,-86 548.4231,-122"/>
<text text-anchor="middle" x="499" y="-99.8" font-family="Times,serif" font-size="14.00" fill="#000000">SharedModule</text>
</g>
<!-- SharedModule&#45;&gt;AppModule -->
<g id="edge4" class="edge">
<title>SharedModule&#45;&gt;AppModule</title>
<path fill="none" stroke="#000000" d="M499,-122.1061C499,-122.1061 499,-140.991 499,-140.991"/>
<polygon fill="#000000" stroke="#000000" points="495.5001,-140.9909 499,-150.991 502.5001,-140.991 495.5001,-140.9909"/>
</g>
<!-- CoreModule -->
<g id="node6" class="node">
<title>CoreModule</title>
<polygon fill="#8dd3c7" stroke="#000000" points="431.2619,-122 428.2619,-126 407.2619,-126 404.2619,-122 344.7381,-122 344.7381,-86 431.2619,-86 431.2619,-122"/>
<text text-anchor="middle" x="388" y="-99.8" font-family="Times,serif" font-size="14.00" fill="#000000">CoreModule</text>
</g>
<!-- CoreModule&#45;&gt;AppModule -->
<g id="edge5" class="edge">
<title>CoreModule&#45;&gt;AppModule</title>
<path fill="none" stroke="#000000" d="M407.7099,-122.027C407.7099,-138.3976 407.7099,-160 407.7099,-160 407.7099,-160 447.0955,-160 447.0955,-160"/>
<polygon fill="#000000" stroke="#000000" points="447.0955,-163.5001 457.0955,-160 447.0955,-156.5001 447.0955,-163.5001"/>
</g>
<!-- AppRoutingModule -->
<g id="node7" class="node">
<title>AppRoutingModule</title>
<polygon fill="#8dd3c7" stroke="#000000" points="326.2744,-122 323.2744,-126 302.2744,-126 299.2744,-122 197.7256,-122 197.7256,-86 326.2744,-86 326.2744,-122"/>
<text text-anchor="middle" x="262" y="-99.8" font-family="Times,serif" font-size="14.00" fill="#000000">AppRoutingModule</text>
</g>
<!-- AppRoutingModule&#45;&gt;AppModule -->
<g id="edge6" class="edge">
<title>AppRoutingModule&#45;&gt;AppModule</title>
<path fill="none" stroke="#000000" d="M262,-122.1061C262,-141.3391 262,-169 262,-169 262,-169 447.1747,-169 447.1747,-169"/>
<polygon fill="#000000" stroke="#000000" points="447.1747,-172.5001 457.1747,-169 447.1747,-165.5001 447.1747,-172.5001"/>
</g>
<!-- NoopInterceptor -->
<g id="node10" class="node">
<title>NoopInterceptor</title>
<ellipse fill="#fdb462" stroke="#000000" cx="99" cy="-104" rx="74.7014" ry="18"/>
<text text-anchor="middle" x="99" y="-99.8" font-family="Times,serif" font-size="14.00" fill="#000000">NoopInterceptor</text>
</g>
<!-- NoopInterceptor&#45;&gt;AppModule -->
<g id="edge9" class="edge">
<title>NoopInterceptor&#45;&gt;AppModule</title>
<path fill="none" stroke="#000000" d="M99,-122.2921C99,-144.2057 99,-178 99,-178 99,-178 447.325,-178 447.325,-178"/>
<polygon fill="#000000" stroke="#000000" points="447.325,-181.5001 457.325,-178 447.3249,-174.5001 447.325,-181.5001"/>
</g>
</g>
</svg>
