<?xml version="1.0" encoding="UTF-8" standalone="no"?>
<!DOCTYPE svg PUBLIC "-//W3C//DTD SVG 1.1//EN"
 "http://www.w3.org/Graphics/SVG/1.1/DTD/svg11.dtd">
<!-- Generated by graphviz version 2.40.1 (20161225.0304)
 -->
<!-- Title: dependencies Pages: 1 -->
<svg width="4190pt" height="518pt"
 viewBox="0.00 0.00 4190.00 518.00" xmlns="http://www.w3.org/2000/svg" xmlns:xlink="http://www.w3.org/1999/xlink">
<g id="graph0" class="graph" transform="scale(1 1) rotate(0) translate(4 514)">
<title>dependencies</title>
<polygon fill="#ffffff" stroke="transparent" points="-4,4 -4,-514 4186,-514 4186,4 -4,4"/>
<text text-anchor="start" x="2070.0091" y="-42.4" font-family="sans-serif" font-weight="bold" font-size="14.00" fill="#000000">Legend</text>
<polygon fill="#ffffb3" stroke="transparent" points="1857,-10 1857,-30 1877,-30 1877,-10 1857,-10"/>
<text text-anchor="start" x="1880.629" y="-15.4" font-family="sans-serif" font-size="14.00" fill="#000000"> &#160;Declarations</text>
<polygon fill="#8dd3c7" stroke="transparent" points="1970,-10 1970,-30 1990,-30 1990,-10 1970,-10"/>
<text text-anchor="start" x="1993.7251" y="-15.4" font-family="sans-serif" font-size="14.00" fill="#000000"> &#160;Module</text>
<polygon fill="#80b1d3" stroke="transparent" points="2056,-10 2056,-30 2076,-30 2076,-10 2056,-10"/>
<text text-anchor="start" x="2079.7812" y="-15.4" font-family="sans-serif" font-size="14.00" fill="#000000"> &#160;Bootstrap</text>
<polygon fill="#fdb462" stroke="transparent" points="2153,-10 2153,-30 2173,-30 2173,-10 2153,-10"/>
<text text-anchor="start" x="2176.6732" y="-15.4" font-family="sans-serif" font-size="14.00" fill="#000000"> &#160;Providers</text>
<polygon fill="#fb8072" stroke="transparent" points="2249,-10 2249,-30 2269,-30 2269,-10 2249,-10"/>
<text text-anchor="start" x="2272.7258" y="-15.4" font-family="sans-serif" font-size="14.00" fill="#000000"> &#160;Exports</text>
<g id="clust1" class="cluster">
<title>cluster_AppModule</title>
<polygon fill="none" stroke="#000000" stroke-dasharray="1,5" points="984,-214 984,-502 1780,-502 1780,-214 984,-214"/>
</g>
<g id="clust2" class="cluster">
<title>cluster_AppModule_declarations</title>
<polygon fill="none" stroke="#000000" points="1650,-298 1650,-350 1772,-350 1772,-298 1650,-298"/>
</g>
<g id="clust4" class="cluster">
<title>cluster_AppModule_imports</title>
<polygon fill="none" stroke="#000000" points="1166,-222 1166,-350 1642,-350 1642,-222 1166,-222"/>
</g>
<g id="clust5" class="cluster">
<title>cluster_AppModule_exports</title>
<polygon fill="none" stroke="#000000" points="1358,-442 1358,-494 1476,-494 1476,-442 1358,-442"/>
</g>
<g id="clust6" class="cluster">
<title>cluster_AppModule_bootstrap</title>
<polygon fill="none" stroke="#000000" points="1484,-442 1484,-494 1608,-494 1608,-442 1484,-442"/>
</g>
<g id="clust7" class="cluster">
<title>cluster_AppModule_providers</title>
<polygon fill="none" stroke="#000000" points="992,-298 992,-350 1158,-350 1158,-298 992,-298"/>
</g>
<g id="clust14" class="cluster">
<title>cluster_BackTopModule</title>
<polygon fill="none" stroke="#000000" stroke-dasharray="1,5" points="4006,-70 4006,-282 4174,-282 4174,-70 4006,-70"/>
</g>
<g id="clust15" class="cluster">
<title>cluster_BackTopModule_declarations</title>
<polygon fill="none" stroke="#000000" points="4016,-78 4016,-130 4164,-130 4164,-78 4016,-78"/>
</g>
<g id="clust18" class="cluster">
<title>cluster_BackTopModule_exports</title>
<polygon fill="none" stroke="#000000" points="4014,-222 4014,-274 4166,-274 4166,-222 4014,-222"/>
</g>
<g id="clust21" class="cluster">
<title>cluster_CoreModule</title>
<polygon fill="none" stroke="#000000" stroke-dasharray="1,5" points="1304,-138 1304,-206 1514,-206 1514,-138 1304,-138"/>
</g>
<g id="clust26" class="cluster">
<title>cluster_CoreModule_providers</title>
<polygon fill="none" stroke="#000000" points="1312,-146 1312,-198 1506,-198 1506,-146 1312,-146"/>
</g>
<g id="clust27" class="cluster">
<title>cluster_EssayModule</title>
<polygon fill="none" stroke="#000000" stroke-dasharray="1,5" points="1522,-138 1522,-206 1780,-206 1780,-138 1522,-138"/>
</g>
<g id="clust28" class="cluster">
<title>cluster_EssayModule_declarations</title>
<polygon fill="none" stroke="#000000" points="1642,-146 1642,-198 1772,-198 1772,-146 1642,-146"/>
</g>
<g id="clust30" class="cluster">
<title>cluster_EssayModule_imports</title>
<polygon fill="none" stroke="#000000" points="1530,-146 1530,-198 1634,-198 1634,-146 1530,-146"/>
</g>
<g id="clust34" class="cluster">
<title>cluster_GridModule</title>
<polygon fill="none" stroke="#000000" stroke-dasharray="1,5" points="1788,-70 1788,-282 2165,-282 2165,-70 1788,-70"/>
</g>
<g id="clust35" class="cluster">
<title>cluster_GridModule_declarations</title>
<polygon fill="none" stroke="#000000" points="1796,-78 1796,-130 2146,-130 2146,-78 1796,-78"/>
</g>
<g id="clust40" class="cluster">
<title>cluster_GridModule_exports</title>
<polygon fill="none" stroke="#000000" points="1796,-222 1796,-274 2157,-274 2157,-222 1796,-222"/>
</g>
<g id="clust43" class="cluster">
<title>cluster_HomeModule</title>
<polygon fill="none" stroke="#000000" stroke-dasharray="1,5" points="2357,-214 2357,-282 3998,-282 3998,-214 2357,-214"/>
</g>
<g id="clust44" class="cluster">
<title>cluster_HomeModule_declarations</title>
<polygon fill="none" stroke="#000000" points="2671,-222 2671,-274 3990,-274 3990,-222 2671,-222"/>
</g>
<g id="clust54" class="cluster">
<title>cluster_HomeModule_imports</title>
<polygon fill="none" stroke="#000000" points="2509,-222 2509,-274 2663,-274 2663,-222 2509,-222"/>
</g>
<g id="clust55" class="cluster">
<title>cluster_HomeModule_exports</title>
<polygon fill="none" stroke="#000000" points="2365,-222 2365,-274 2501,-274 2501,-222 2365,-222"/>
</g>
<g id="clust64" class="cluster">
<title>cluster_PaginationModule</title>
<polygon fill="none" stroke="#000000" stroke-dasharray="1,5" points="2173,-70 2173,-282 2349,-282 2349,-70 2173,-70"/>
</g>
<g id="clust65" class="cluster">
<title>cluster_PaginationModule_declarations</title>
<polygon fill="none" stroke="#000000" points="2181,-78 2181,-130 2339,-130 2339,-78 2181,-78"/>
</g>
<g id="clust68" class="cluster">
<title>cluster_PaginationModule_exports</title>
<polygon fill="none" stroke="#000000" points="2181,-222 2181,-274 2341,-274 2341,-222 2181,-222"/>
</g>
<g id="clust71" class="cluster">
<title>cluster_SharedModule</title>
<polygon fill="none" stroke="#000000" stroke-dasharray="1,5" points="344,-290 344,-358 871,-358 871,-290 344,-290"/>
</g>
<g id="clust73" class="cluster">
<title>cluster_SharedModule_imports</title>
<polygon fill="none" stroke="#000000" points="737,-298 737,-350 863,-350 863,-298 737,-298"/>
</g>
<g id="clust74" class="cluster">
<title>cluster_SharedModule_exports</title>
<polygon fill="none" stroke="#000000" points="352,-298 352,-350 729,-350 729,-298 352,-298"/>
</g>
<g id="clust77" class="cluster">
<title>cluster_TimelineModule</title>
<polygon fill="none" stroke="#000000" stroke-dasharray="1,5" points="8,-366 8,-434 976,-434 976,-366 8,-366"/>
</g>
<g id="clust78" class="cluster">
<title>cluster_TimelineModule_declarations</title>
<polygon fill="none" stroke="#000000" points="502,-374 502,-426 968,-426 968,-374 502,-374"/>
</g>
<g id="clust83" class="cluster">
<title>cluster_TimelineModule_exports</title>
<polygon fill="none" stroke="#000000" points="16,-374 16,-426 494,-426 494,-374 16,-374"/>
</g>
<!-- AppComponent -->
<g id="node1" class="node">
<title>AppComponent</title>
<polygon fill="#ffffb3" stroke="#000000" points="1763.9399,-342 1658.0601,-342 1658.0601,-306 1763.9399,-306 1763.9399,-342"/>
<text text-anchor="middle" x="1711" y="-319.8" font-family="Times,serif" font-size="14.00" fill="#000000">AppComponent</text>
</g>
<!-- AppModule -->
<g id="node2" class="node">
<title>AppModule</title>
<polygon fill="#8dd3c7" stroke="#000000" points="1522.6571,-418 1519.6571,-422 1498.6571,-422 1495.6571,-418 1439.3429,-418 1439.3429,-382 1522.6571,-382 1522.6571,-418"/>
<text text-anchor="middle" x="1481" y="-395.8" font-family="Times,serif" font-size="14.00" fill="#000000">AppModule</text>
</g>
<!-- AppComponent&#45;&gt;AppModule -->
<g id="edge1" class="edge">
<title>AppComponent&#45;&gt;AppModule</title>
<path fill="none" stroke="#000000" d="M1711,-342.0263C1711,-366.9773 1711,-409 1711,-409 1711,-409 1532.9181,-409 1532.9181,-409"/>
<polygon fill="#000000" stroke="#000000" points="1532.9181,-405.5001 1522.9181,-409 1532.9181,-412.5001 1532.9181,-405.5001"/>
</g>
<!-- SharedModule  -->
<g id="node8" class="node">
<title>SharedModule </title>
<polygon fill="#fb8072" stroke="#000000" points="1467.9222,-486 1366.0778,-486 1366.0778,-450 1467.9222,-450 1467.9222,-486"/>
<text text-anchor="middle" x="1417" y="-463.8" font-family="Times,serif" font-size="14.00" fill="#000000">SharedModule </text>
</g>
<!-- AppModule&#45;&gt;SharedModule  -->
<g id="edge7" class="edge">
<title>AppModule&#45;&gt;SharedModule </title>
<path fill="none" stroke="#000000" stroke-dasharray="5,2" d="M1453.5665,-418.2228C1453.5665,-418.2228 1453.5665,-439.7269 1453.5665,-439.7269"/>
<polygon fill="#000000" stroke="#000000" points="1450.0665,-439.7269 1453.5665,-449.7269 1457.0665,-439.727 1450.0665,-439.7269"/>
</g>
<!-- AppComponent  -->
<g id="node9" class="node">
<title>AppComponent </title>
<polygon fill="#80b1d3" stroke="#000000" points="1600.439,-486 1491.561,-486 1491.561,-450 1600.439,-450 1600.439,-486"/>
<text text-anchor="middle" x="1546" y="-463.8" font-family="Times,serif" font-size="14.00" fill="#000000">AppComponent </text>
</g>
<!-- AppModule&#45;&gt;AppComponent  -->
<g id="edge8" class="edge">
<title>AppModule&#45;&gt;AppComponent </title>
<path fill="none" stroke="#000000" stroke-dasharray="1,5" d="M1507.1793,-418.2228C1507.1793,-418.2228 1507.1793,-439.7269 1507.1793,-439.7269"/>
<polygon fill="#000000" stroke="#000000" points="1503.6794,-439.7269 1507.1793,-449.7269 1510.6794,-439.727 1503.6794,-439.7269"/>
</g>
<!-- HomeModule -->
<g id="node3" class="node">
<title>HomeModule</title>
<polygon fill="#8dd3c7" stroke="#000000" points="1633.7619,-342 1630.7619,-346 1609.7619,-346 1606.7619,-342 1540.2381,-342 1540.2381,-306 1633.7619,-306 1633.7619,-342"/>
<text text-anchor="middle" x="1587" y="-319.8" font-family="Times,serif" font-size="14.00" fill="#000000">HomeModule</text>
</g>
<!-- HomeModule&#45;&gt;AppModule -->
<g id="edge2" class="edge">
<title>HomeModule&#45;&gt;AppModule</title>
<path fill="none" stroke="#000000" d="M1570.2944,-342.0109C1570.2944,-364.4852 1570.2944,-400 1570.2944,-400 1570.2944,-400 1532.7713,-400 1532.7713,-400"/>
<polygon fill="#000000" stroke="#000000" points="1532.7713,-396.5001 1522.7713,-400 1532.7713,-403.5001 1532.7713,-396.5001"/>
</g>
<!-- HomeComponent  -->
<g id="node34" class="node">
<title>HomeComponent </title>
<polygon fill="#fb8072" stroke="#000000" points="2492.5442,-266 2373.4558,-266 2373.4558,-230 2492.5442,-230 2492.5442,-266"/>
<text text-anchor="middle" x="2433" y="-243.8" font-family="Times,serif" font-size="14.00" fill="#000000">HomeComponent </text>
</g>
<!-- HomeModule&#45;&gt;HomeComponent  -->
<g id="edge32" class="edge">
<title>HomeModule&#45;&gt;HomeComponent </title>
<path fill="none" stroke="#000000" stroke-dasharray="5,2" d="M1626.2155,-305.7181C1626.2155,-290.0522 1626.2155,-270 1626.2155,-270 1626.2155,-270 2433,-270 2433,-270 2433,-270 2433,-269.6168 2433,-269.6168"/>
<polygon fill="#000000" stroke="#000000" points="2436.5003,-276.1678 2433,-266.1679 2429.5003,-276.168 2436.5003,-276.1678"/>
</g>
<!-- EssayModule -->
<g id="node4" class="node">
<title>EssayModule</title>
<polygon fill="#8dd3c7" stroke="#000000" points="1634.2064,-266 1631.2064,-270 1610.2064,-270 1607.2064,-266 1541.7936,-266 1541.7936,-230 1634.2064,-230 1634.2064,-266"/>
<text text-anchor="middle" x="1588" y="-243.8" font-family="Times,serif" font-size="14.00" fill="#000000">EssayModule</text>
</g>
<!-- EssayModule&#45;&gt;AppModule -->
<g id="edge3" class="edge">
<title>EssayModule&#45;&gt;AppModule</title>
<path fill="none" stroke="#000000" d="M1541.7035,-248C1535.5437,-248 1531.3047,-248 1531.3047,-248 1531.3047,-248 1531.3047,-391 1531.3047,-391 1531.3047,-391 1530.474,-391 1530.474,-391"/>
<polygon fill="#000000" stroke="#000000" points="1532.9979,-387.5001 1522.9979,-391 1532.9979,-394.5001 1532.9979,-387.5001"/>
</g>
<!-- SharedModule -->
<g id="node5" class="node">
<title>SharedModule</title>
<polygon fill="#8dd3c7" stroke="#000000" points="1272.4231,-266 1269.4231,-270 1248.4231,-270 1245.4231,-266 1173.5769,-266 1173.5769,-230 1272.4231,-230 1272.4231,-266"/>
<text text-anchor="middle" x="1223" y="-243.8" font-family="Times,serif" font-size="14.00" fill="#000000">SharedModule</text>
</g>
<!-- SharedModule&#45;&gt;AppModule -->
<g id="edge4" class="edge">
<title>SharedModule&#45;&gt;AppModule</title>
<path fill="none" stroke="#000000" d="M1206.5963,-266.1246C1206.5963,-307.6261 1206.5963,-406 1206.5963,-406 1206.5963,-406 1429.324,-406 1429.324,-406"/>
<polygon fill="#000000" stroke="#000000" points="1429.324,-409.5001 1439.324,-406 1429.3239,-402.5001 1429.324,-409.5001"/>
</g>
<!-- SharedModule&#45;&gt;HomeModule -->
<g id="edge31" class="edge">
<title>SharedModule&#45;&gt;HomeModule</title>
<path fill="none" stroke="#000000" d="M1239.4037,-266.0267C1239.4037,-286.7672 1239.4037,-318 1239.4037,-318 1239.4037,-318 1530.1216,-318 1530.1216,-318"/>
<polygon fill="#000000" stroke="#000000" points="1530.1217,-321.5001 1540.1216,-318 1530.1216,-314.5001 1530.1217,-321.5001"/>
</g>
<!-- GridModule  -->
<g id="node39" class="node">
<title>GridModule </title>
<polygon fill="#fb8072" stroke="#000000" points="580.2081,-342 491.7919,-342 491.7919,-306 580.2081,-306 580.2081,-342"/>
<text text-anchor="middle" x="536" y="-319.8" font-family="Times,serif" font-size="14.00" fill="#000000">GridModule </text>
</g>
<!-- SharedModule&#45;&gt;GridModule  -->
<g id="edge38" class="edge">
<title>SharedModule&#45;&gt;GridModule </title>
<path fill="none" stroke="#000000" stroke-dasharray="5,2" d="M1173.5927,-245C1016.0698,-245 536,-245 536,-245 536,-245 536,-295.6772 536,-295.6772"/>
<polygon fill="#000000" stroke="#000000" points="532.5001,-295.6772 536,-305.6772 539.5001,-295.6773 532.5001,-295.6772"/>
</g>
<!-- TimelineModule  -->
<g id="node40" class="node">
<title>TimelineModule </title>
<polygon fill="#fb8072" stroke="#000000" points="473.5947,-342 360.4053,-342 360.4053,-306 473.5947,-306 473.5947,-342"/>
<text text-anchor="middle" x="417" y="-319.8" font-family="Times,serif" font-size="14.00" fill="#000000">TimelineModule </text>
</g>
<!-- SharedModule&#45;&gt;TimelineModule  -->
<g id="edge39" class="edge">
<title>SharedModule&#45;&gt;TimelineModule </title>
<path fill="none" stroke="#000000" stroke-dasharray="5,2" d="M1173.4923,-238C998.1313,-238 417,-238 417,-238 417,-238 417,-295.7616 417,-295.7616"/>
<polygon fill="#000000" stroke="#000000" points="413.5001,-295.7616 417,-305.7616 420.5001,-295.7616 413.5001,-295.7616"/>
</g>
<!-- PaginationModule  -->
<g id="node41" class="node">
<title>PaginationModule </title>
<polygon fill="#fb8072" stroke="#000000" points="721.4334,-342 598.5666,-342 598.5666,-306 721.4334,-306 721.4334,-342"/>
<text text-anchor="middle" x="660" y="-319.8" font-family="Times,serif" font-size="14.00" fill="#000000">PaginationModule </text>
</g>
<!-- SharedModule&#45;&gt;PaginationModule  -->
<g id="edge40" class="edge">
<title>SharedModule&#45;&gt;PaginationModule </title>
<path fill="none" stroke="#000000" stroke-dasharray="5,2" d="M1173.5309,-252C1036.1486,-252 660,-252 660,-252 660,-252 660,-295.8314 660,-295.8314"/>
<polygon fill="#000000" stroke="#000000" points="656.5001,-295.8313 660,-305.8314 663.5001,-295.8314 656.5001,-295.8313"/>
</g>
<!-- CoreModule -->
<g id="node6" class="node">
<title>CoreModule</title>
<polygon fill="#8dd3c7" stroke="#000000" points="1524.2619,-266 1521.2619,-270 1500.2619,-270 1497.2619,-266 1437.7381,-266 1437.7381,-230 1524.2619,-230 1524.2619,-266"/>
<text text-anchor="middle" x="1481" y="-243.8" font-family="Times,serif" font-size="14.00" fill="#000000">CoreModule</text>
</g>
<!-- CoreModule&#45;&gt;AppModule -->
<g id="edge5" class="edge">
<title>CoreModule&#45;&gt;AppModule</title>
<path fill="none" stroke="#000000" d="M1494.9427,-266.0333C1494.9427,-266.0333 1494.9427,-371.9902 1494.9427,-371.9902"/>
<polygon fill="#000000" stroke="#000000" points="1491.4428,-371.9901 1494.9427,-381.9902 1498.4428,-371.9902 1491.4428,-371.9901"/>
</g>
<!-- AppRoutingModule -->
<g id="node7" class="node">
<title>AppRoutingModule</title>
<polygon fill="#8dd3c7" stroke="#000000" points="1419.2744,-266 1416.2744,-270 1395.2744,-270 1392.2744,-266 1290.7256,-266 1290.7256,-230 1419.2744,-230 1419.2744,-266"/>
<text text-anchor="middle" x="1355" y="-243.8" font-family="Times,serif" font-size="14.00" fill="#000000">AppRoutingModule</text>
</g>
<!-- AppRoutingModule&#45;&gt;AppModule -->
<g id="edge6" class="edge">
<title>AppRoutingModule&#45;&gt;AppModule</title>
<path fill="none" stroke="#000000" d="M1392.713,-266.1958C1392.713,-305.3337 1392.713,-394 1392.713,-394 1392.713,-394 1429.1834,-394 1429.1834,-394"/>
<polygon fill="#000000" stroke="#000000" points="1429.1835,-397.5001 1439.1834,-394 1429.1834,-390.5001 1429.1835,-397.5001"/>
</g>
<!-- NoopInterceptor -->
<g id="node10" class="node">
<title>NoopInterceptor</title>
<ellipse fill="#fdb462" stroke="#000000" cx="1075" cy="-324" rx="74.7014" ry="18"/>
<text text-anchor="middle" x="1075" y="-319.8" font-family="Times,serif" font-size="14.00" fill="#000000">NoopInterceptor</text>
</g>
<!-- NoopInterceptor&#45;&gt;AppModule -->
<g id="edge9" class="edge">
<title>NoopInterceptor&#45;&gt;AppModule</title>
<path fill="none" stroke="#000000" d="M1145.9986,-330C1258.9787,-330 1467.0573,-330 1467.0573,-330 1467.0573,-330 1467.0573,-371.9733 1467.0573,-371.9733"/>
<polygon fill="#000000" stroke="#000000" points="1463.5574,-371.9732 1467.0573,-381.9733 1470.5574,-371.9733 1463.5574,-371.9732"/>
</g>
<!-- BackTopComponent -->
<g id="node11" class="node">
<title>BackTopComponent</title>
<polygon fill="#ffffb3" stroke="#000000" points="4156.1513,-122 4023.8487,-122 4023.8487,-86 4156.1513,-86 4156.1513,-122"/>
<text text-anchor="middle" x="4090" y="-99.8" font-family="Times,serif" font-size="14.00" fill="#000000">BackTopComponent</text>
</g>
<!-- BackTopModule -->
<g id="node12" class="node">
<title>BackTopModule</title>
<polygon fill="#8dd3c7" stroke="#000000" points="4145.3683,-190 4142.3683,-194 4121.3683,-194 4118.3683,-190 4034.6317,-190 4034.6317,-154 4145.3683,-154 4145.3683,-190"/>
<text text-anchor="middle" x="4090" y="-167.8" font-family="Times,serif" font-size="14.00" fill="#000000">BackTopModule</text>
</g>
<!-- BackTopComponent&#45;&gt;BackTopModule -->
<g id="edge10" class="edge">
<title>BackTopComponent&#45;&gt;BackTopModule</title>
<path fill="none" stroke="#000000" d="M4090,-122.2228C4090,-122.2228 4090,-143.7269 4090,-143.7269"/>
<polygon fill="#000000" stroke="#000000" points="4086.5001,-143.7269 4090,-153.7269 4093.5001,-143.727 4086.5001,-143.7269"/>
</g>
<!-- BackTopComponent  -->
<g id="node13" class="node">
<title>BackTopComponent </title>
<polygon fill="#fb8072" stroke="#000000" points="4158.1509,-266 4021.8491,-266 4021.8491,-230 4158.1509,-230 4158.1509,-266"/>
<text text-anchor="middle" x="4090" y="-243.8" font-family="Times,serif" font-size="14.00" fill="#000000">BackTopComponent </text>
</g>
<!-- BackTopModule&#45;&gt;BackTopComponent  -->
<g id="edge11" class="edge">
<title>BackTopModule&#45;&gt;BackTopComponent </title>
<path fill="none" stroke="#000000" stroke-dasharray="5,2" d="M4090,-190.0109C4090,-190.0109 4090,-219.855 4090,-219.855"/>
<polygon fill="#000000" stroke="#000000" points="4086.5001,-219.8549 4090,-229.855 4093.5001,-219.855 4086.5001,-219.8549"/>
</g>
<!-- GetBlogInfoService -->
<g id="node14" class="node">
<title>GetBlogInfoService</title>
<ellipse fill="#fdb462" stroke="#000000" cx="1409" cy="-172" rx="88.6024" ry="18"/>
<text text-anchor="middle" x="1409" y="-167.8" font-family="Times,serif" font-size="14.00" fill="#000000">GetBlogInfoService</text>
</g>
<!-- GetBlogInfoService&#45;&gt;CoreModule -->
<g id="edge12" class="edge">
<title>GetBlogInfoService&#45;&gt;CoreModule</title>
<path fill="none" stroke="#000000" d="M1467.7101,-185.5873C1467.7101,-185.5873 1467.7101,-219.9574 1467.7101,-219.9574"/>
<polygon fill="#000000" stroke="#000000" points="1464.2102,-219.9574 1467.7101,-229.9574 1471.2102,-219.9575 1464.2102,-219.9574"/>
</g>
<!-- EssayComponent -->
<g id="node15" class="node">
<title>EssayComponent</title>
<polygon fill="#ffffb3" stroke="#000000" points="1763.9888,-190 1650.0112,-190 1650.0112,-154 1763.9888,-154 1763.9888,-190"/>
<text text-anchor="middle" x="1707" y="-167.8" font-family="Times,serif" font-size="14.00" fill="#000000">EssayComponent</text>
</g>
<!-- EssayComponent&#45;&gt;EssayModule -->
<g id="edge13" class="edge">
<title>EssayComponent&#45;&gt;EssayModule</title>
<path fill="none" stroke="#000000" d="M1654.143,-190.0109C1654.143,-212.4852 1654.143,-248 1654.143,-248 1654.143,-248 1644.298,-248 1644.298,-248"/>
<polygon fill="#000000" stroke="#000000" points="1644.298,-244.5001 1634.298,-248 1644.2979,-251.5001 1644.298,-244.5001"/>
</g>
<!-- EssayRoutes -->
<g id="node16" class="node">
<title>EssayRoutes</title>
<polygon fill="#8dd3c7" stroke="#000000" points="1625.544,-190 1622.544,-194 1601.544,-194 1598.544,-190 1538.456,-190 1538.456,-154 1625.544,-154 1625.544,-190"/>
<text text-anchor="middle" x="1582" y="-167.8" font-family="Times,serif" font-size="14.00" fill="#000000">EssayRoutes</text>
</g>
<!-- EssayRoutes&#45;&gt;EssayModule -->
<g id="edge14" class="edge">
<title>EssayRoutes&#45;&gt;EssayModule</title>
<path fill="none" stroke="#000000" d="M1583.8342,-190.0109C1583.8342,-190.0109 1583.8342,-219.855 1583.8342,-219.855"/>
<polygon fill="#000000" stroke="#000000" points="1580.3342,-219.8549 1583.8342,-229.855 1587.3342,-219.855 1580.3342,-219.8549"/>
</g>
<!-- RowComponent -->
<g id="node17" class="node">
<title>RowComponent</title>
<polygon fill="#ffffb3" stroke="#000000" points="1911.7758,-122 1804.2242,-122 1804.2242,-86 1911.7758,-86 1911.7758,-122"/>
<text text-anchor="middle" x="1858" y="-99.8" font-family="Times,serif" font-size="14.00" fill="#000000">RowComponent</text>
</g>
<!-- GridModule -->
<g id="node20" class="node">
<title>GridModule</title>
<polygon fill="#8dd3c7" stroke="#000000" points="2015.7079,-190 2012.7079,-194 1991.7079,-194 1988.7079,-190 1930.2921,-190 1930.2921,-154 2015.7079,-154 2015.7079,-190"/>
<text text-anchor="middle" x="1973" y="-167.8" font-family="Times,serif" font-size="14.00" fill="#000000">GridModule</text>
</g>
<!-- RowComponent&#45;&gt;GridModule -->
<g id="edge15" class="edge">
<title>RowComponent&#45;&gt;GridModule</title>
<path fill="none" stroke="#000000" d="M1874.5099,-122.2667C1874.5099,-140.5552 1874.5099,-166 1874.5099,-166 1874.5099,-166 1920.3736,-166 1920.3736,-166"/>
<polygon fill="#000000" stroke="#000000" points="1920.3737,-169.5001 1930.3736,-166 1920.3736,-162.5001 1920.3737,-169.5001"/>
</g>
<!-- ColDirective -->
<g id="node18" class="node">
<title>ColDirective</title>
<polygon fill="#ffffb3" stroke="#000000" points="2138.3105,-122 2049.6895,-122 2049.6895,-86 2138.3105,-86 2138.3105,-122"/>
<text text-anchor="middle" x="2094" y="-99.8" font-family="Times,serif" font-size="14.00" fill="#000000">ColDirective</text>
</g>
<!-- ColDirective&#45;&gt;GridModule -->
<g id="edge16" class="edge">
<title>ColDirective&#45;&gt;GridModule</title>
<path fill="none" stroke="#000000" d="M2094,-122.2667C2094,-140.5552 2094,-166 2094,-166 2094,-166 2025.6601,-166 2025.6601,-166"/>
<polygon fill="#000000" stroke="#000000" points="2025.6601,-162.5001 2015.6601,-166 2025.66,-169.5001 2025.6601,-162.5001"/>
</g>
<!-- ColComponent -->
<g id="node19" class="node">
<title>ColComponent</title>
<polygon fill="#ffffb3" stroke="#000000" points="2031.5606,-122 1930.4394,-122 1930.4394,-86 2031.5606,-86 2031.5606,-122"/>
<text text-anchor="middle" x="1981" y="-99.8" font-family="Times,serif" font-size="14.00" fill="#000000">ColComponent</text>
</g>
<!-- ColComponent&#45;&gt;GridModule -->
<g id="edge17" class="edge">
<title>ColComponent&#45;&gt;GridModule</title>
<path fill="none" stroke="#000000" d="M1973,-122.2228C1973,-122.2228 1973,-143.7269 1973,-143.7269"/>
<polygon fill="#000000" stroke="#000000" points="1969.5001,-143.7269 1973,-153.7269 1976.5001,-143.727 1969.5001,-143.7269"/>
</g>
<!-- GridModule&#45;&gt;SharedModule -->
<g id="edge35" class="edge">
<title>GridModule&#45;&gt;SharedModule</title>
<path fill="none" stroke="#000000" d="M1958.7987,-190.2434C1958.7987,-197.4297 1958.7987,-204 1958.7987,-204 1958.7987,-204 1206.5963,-204 1206.5963,-204 1206.5963,-204 1206.5963,-219.8495 1206.5963,-219.8495"/>
<polygon fill="#000000" stroke="#000000" points="1203.0964,-219.8494 1206.5963,-229.8495 1210.0964,-219.8495 1203.0964,-219.8494"/>
</g>
<!-- RowComponent  -->
<g id="node21" class="node">
<title>RowComponent </title>
<polygon fill="#fb8072" stroke="#000000" points="2148.7759,-266 2037.2241,-266 2037.2241,-230 2148.7759,-230 2148.7759,-266"/>
<text text-anchor="middle" x="2093" y="-243.8" font-family="Times,serif" font-size="14.00" fill="#000000">RowComponent </text>
</g>
<!-- GridModule&#45;&gt;RowComponent  -->
<g id="edge18" class="edge">
<title>GridModule&#45;&gt;RowComponent </title>
<path fill="none" stroke="#000000" stroke-dasharray="5,2" d="M2015.6992,-178C2030.568,-178 2043.6036,-178 2043.6036,-178 2043.6036,-178 2043.6036,-219.9733 2043.6036,-219.9733"/>
<polygon fill="#000000" stroke="#000000" points="2040.1037,-219.9732 2043.6036,-229.9733 2047.1037,-219.9733 2040.1037,-219.9732"/>
</g>
<!-- ColDirective  -->
<g id="node22" class="node">
<title>ColDirective </title>
<polygon fill="#fb8072" stroke="#000000" points="2018.8102,-266 1927.1898,-266 1927.1898,-230 2018.8102,-230 2018.8102,-266"/>
<text text-anchor="middle" x="1973" y="-243.8" font-family="Times,serif" font-size="14.00" fill="#000000">ColDirective </text>
</g>
<!-- GridModule&#45;&gt;ColDirective  -->
<g id="edge19" class="edge">
<title>GridModule&#45;&gt;ColDirective </title>
<path fill="none" stroke="#000000" stroke-dasharray="5,2" d="M1987.2013,-190.0109C1987.2013,-190.0109 1987.2013,-219.855 1987.2013,-219.855"/>
<polygon fill="#000000" stroke="#000000" points="1983.7014,-219.8549 1987.2013,-229.855 1990.7014,-219.855 1983.7014,-219.8549"/>
</g>
<!-- ColComponent  -->
<g id="node23" class="node">
<title>ColComponent </title>
<polygon fill="#fb8072" stroke="#000000" points="1909.5596,-266 1804.4404,-266 1804.4404,-230 1909.5596,-230 1909.5596,-266"/>
<text text-anchor="middle" x="1857" y="-243.8" font-family="Times,serif" font-size="14.00" fill="#000000">ColComponent </text>
</g>
<!-- GridModule&#45;&gt;ColComponent  -->
<g id="edge20" class="edge">
<title>GridModule&#45;&gt;ColComponent </title>
<path fill="none" stroke="#000000" stroke-dasharray="5,2" d="M1930.3895,-178C1891.3169,-178 1839.4901,-178 1839.4901,-178 1839.4901,-178 1839.4901,-219.9733 1839.4901,-219.9733"/>
<polygon fill="#000000" stroke="#000000" points="1835.9902,-219.9732 1839.4901,-229.9733 1842.9902,-219.9733 1835.9902,-219.9732"/>
</g>
<!-- HomeComponent -->
<g id="node24" class="node">
<title>HomeComponent</title>
<polygon fill="#ffffb3" stroke="#000000" points="3705.5451,-266 3590.4549,-266 3590.4549,-230 3705.5451,-230 3705.5451,-266"/>
<text text-anchor="middle" x="3648" y="-243.8" font-family="Times,serif" font-size="14.00" fill="#000000">HomeComponent</text>
</g>
<!-- HomeComponent&#45;&gt;HomeModule -->
<g id="edge21" class="edge">
<title>HomeComponent&#45;&gt;HomeModule</title>
<path fill="none" stroke="#000000" d="M3648,-266.1467C3648,-279.7395 3648,-296 3648,-296 3648,-296 1603.2195,-296 1603.2195,-296 1603.2195,-296 1603.2195,-296.9793 1603.2195,-296.9793"/>
<polygon fill="#000000" stroke="#000000" points="1599.7196,-295.793 1603.2195,-305.793 1606.7196,-295.7931 1599.7196,-295.793"/>
</g>
<!-- ResumeComponent -->
<g id="node25" class="node">
<title>ResumeComponent</title>
<polygon fill="#ffffb3" stroke="#000000" points="3572.4341,-266 3445.5659,-266 3445.5659,-230 3572.4341,-230 3572.4341,-266"/>
<text text-anchor="middle" x="3509" y="-243.8" font-family="Times,serif" font-size="14.00" fill="#000000">ResumeComponent</text>
</g>
<!-- ResumeComponent&#45;&gt;HomeModule -->
<g id="edge22" class="edge">
<title>ResumeComponent&#45;&gt;HomeModule</title>
<path fill="none" stroke="#000000" d="M3509,-266.0439C3509,-278.5633 3509,-293 3509,-293 3509,-293 1595.5542,-293 1595.5542,-293 1595.5542,-293 1595.5542,-295.9672 1595.5542,-295.9672"/>
<polygon fill="#000000" stroke="#000000" points="1592.0543,-295.9671 1595.5542,-305.9672 1599.0543,-295.9672 1592.0543,-295.9671"/>
</g>
<!-- MyInfoComponent -->
<g id="node26" class="node">
<title>MyInfoComponent</title>
<polygon fill="#ffffb3" stroke="#000000" points="3428.0982,-266 3303.9018,-266 3303.9018,-230 3428.0982,-230 3428.0982,-266"/>
<text text-anchor="middle" x="3366" y="-243.8" font-family="Times,serif" font-size="14.00" fill="#000000">MyInfoComponent</text>
</g>
<!-- MyInfoComponent&#45;&gt;HomeModule -->
<g id="edge23" class="edge">
<title>MyInfoComponent&#45;&gt;HomeModule</title>
<path fill="none" stroke="#000000" d="M3366,-266.0555C3366,-277.439 3366,-290 3366,-290 3366,-290 1587.8889,-290 1587.8889,-290 1587.8889,-290 1587.8889,-295.8056 1587.8889,-295.8056"/>
<polygon fill="#000000" stroke="#000000" points="1584.3889,-295.8055 1587.8889,-305.8056 1591.3889,-295.8056 1584.3889,-295.8055"/>
</g>
<!-- MyProductComponent -->
<g id="node27" class="node">
<title>MyProductComponent</title>
<polygon fill="#ffffb3" stroke="#000000" points="3286.3258,-266 3141.6742,-266 3141.6742,-230 3286.3258,-230 3286.3258,-266"/>
<text text-anchor="middle" x="3214" y="-243.8" font-family="Times,serif" font-size="14.00" fill="#000000">MyProductComponent</text>
</g>
<!-- MyProductComponent&#45;&gt;HomeModule -->
<g id="edge24" class="edge">
<title>MyProductComponent&#45;&gt;HomeModule</title>
<path fill="none" stroke="#000000" d="M3214,-266.1097C3214,-275.897 3214,-286 3214,-286 3214,-286 1580.2235,-286 1580.2235,-286 1580.2235,-286 1580.2235,-295.8903 1580.2235,-295.8903"/>
<polygon fill="#000000" stroke="#000000" points="1576.7236,-295.8903 1580.2235,-305.8903 1583.7236,-295.8904 1576.7236,-295.8903"/>
</g>
<!-- MySkillComponent -->
<g id="node28" class="node">
<title>MySkillComponent</title>
<polygon fill="#ffffb3" stroke="#000000" points="3123.7316,-266 2996.2684,-266 2996.2684,-230 3123.7316,-230 3123.7316,-266"/>
<text text-anchor="middle" x="3060" y="-243.8" font-family="Times,serif" font-size="14.00" fill="#000000">MySkillComponent</text>
</g>
<!-- MySkillComponent&#45;&gt;HomeModule -->
<g id="edge25" class="edge">
<title>MySkillComponent&#45;&gt;HomeModule</title>
<path fill="none" stroke="#000000" d="M3060,-266.32C3060,-274.7883 3060,-283 3060,-283 3060,-283 1572.5582,-283 1572.5582,-283 1572.5582,-283 1572.5582,-295.8975 1572.5582,-295.8975"/>
<polygon fill="#000000" stroke="#000000" points="1569.0583,-295.8974 1572.5582,-305.8975 1576.0583,-295.8975 1569.0583,-295.8974"/>
</g>
<!-- ResumeProCardComponent -->
<g id="node29" class="node">
<title>ResumeProCardComponent</title>
<polygon fill="#ffffb3" stroke="#000000" points="2978.5884,-266 2805.4116,-266 2805.4116,-230 2978.5884,-230 2978.5884,-266"/>
<text text-anchor="middle" x="2892" y="-243.8" font-family="Times,serif" font-size="14.00" fill="#000000">ResumeProCardComponent</text>
</g>
<!-- ResumeProCardComponent&#45;&gt;HomeModule -->
<g id="edge26" class="edge">
<title>ResumeProCardComponent&#45;&gt;HomeModule</title>
<path fill="none" stroke="#000000" d="M2892,-266.2434C2892,-273.4297 2892,-280 2892,-280 2892,-280 1564.8929,-280 1564.8929,-280 1564.8929,-280 1564.8929,-295.8495 1564.8929,-295.8495"/>
<polygon fill="#000000" stroke="#000000" points="1561.393,-295.8494 1564.8929,-305.8495 1568.393,-295.8495 1561.393,-295.8494"/>
</g>
<!-- BlogComponent -->
<g id="node30" class="node">
<title>BlogComponent</title>
<polygon fill="#ffffb3" stroke="#000000" points="2787.0605,-266 2678.9395,-266 2678.9395,-230 2787.0605,-230 2787.0605,-266"/>
<text text-anchor="middle" x="2733" y="-243.8" font-family="Times,serif" font-size="14.00" fill="#000000">BlogComponent</text>
</g>
<!-- BlogComponent&#45;&gt;HomeModule -->
<g id="edge27" class="edge">
<title>BlogComponent&#45;&gt;HomeModule</title>
<path fill="none" stroke="#000000" d="M2733,-266.207C2733,-271.5549 2733,-276 2733,-276 2733,-276 1557.2276,-276 1557.2276,-276 1557.2276,-276 1557.2276,-295.8533 1557.2276,-295.8533"/>
<polygon fill="#000000" stroke="#000000" points="1553.7276,-295.8532 1557.2276,-305.8533 1560.7276,-295.8533 1553.7276,-295.8532"/>
</g>
<!-- BlogItemComponent -->
<g id="node31" class="node">
<title>BlogItemComponent</title>
<polygon fill="#ffffb3" stroke="#000000" points="3982.2162,-266 3847.7838,-266 3847.7838,-230 3982.2162,-230 3982.2162,-266"/>
<text text-anchor="middle" x="3915" y="-243.8" font-family="Times,serif" font-size="14.00" fill="#000000">BlogItemComponent</text>
</g>
<!-- BlogItemComponent&#45;&gt;HomeModule -->
<g id="edge28" class="edge">
<title>BlogItemComponent&#45;&gt;HomeModule</title>
<path fill="none" stroke="#000000" d="M3915,-266.0091C3915,-282.0494 3915,-303 3915,-303 3915,-303 1618.5502,-303 1618.5502,-303 1618.5502,-303 1618.5502,-303.292 1618.5502,-303.292"/>
<polygon fill="#000000" stroke="#000000" points="1615.0505,-295.9198 1618.5502,-305.92 1622.0505,-295.9201 1615.0505,-295.9198"/>
</g>
<!-- SideComponent -->
<g id="node32" class="node">
<title>SideComponent</title>
<polygon fill="#ffffb3" stroke="#000000" points="3830.2204,-266 3723.7796,-266 3723.7796,-230 3830.2204,-230 3830.2204,-266"/>
<text text-anchor="middle" x="3777" y="-243.8" font-family="Times,serif" font-size="14.00" fill="#000000">SideComponent</text>
</g>
<!-- SideComponent&#45;&gt;HomeModule -->
<g id="edge29" class="edge">
<title>SideComponent&#45;&gt;HomeModule</title>
<path fill="none" stroke="#000000" d="M3777,-266.1871C3777,-281.1824 3777,-300 3777,-300 3777,-300 1610.8848,-300 1610.8848,-300 1610.8848,-300 1610.8848,-300.581 1610.8848,-300.581"/>
<polygon fill="#000000" stroke="#000000" points="1607.385,-295.8097 1610.8848,-305.8097 1614.385,-295.8098 1607.385,-295.8097"/>
</g>
<!-- HomeRoutingModule -->
<g id="node33" class="node">
<title>HomeRoutingModule</title>
<polygon fill="#8dd3c7" stroke="#000000" points="2655.3795,-266 2652.3795,-270 2631.3795,-270 2628.3795,-266 2516.6205,-266 2516.6205,-230 2655.3795,-230 2655.3795,-266"/>
<text text-anchor="middle" x="2586" y="-243.8" font-family="Times,serif" font-size="14.00" fill="#000000">HomeRoutingModule</text>
</g>
<!-- HomeRoutingModule&#45;&gt;HomeModule -->
<g id="edge30" class="edge">
<title>HomeRoutingModule&#45;&gt;HomeModule</title>
<path fill="none" stroke="#000000" d="M2586,-266.1686C2586,-270.0459 2586,-273 2586,-273 2586,-273 1549.5622,-273 1549.5622,-273 1549.5622,-273 1549.5622,-295.8757 1549.5622,-295.8757"/>
<polygon fill="#000000" stroke="#000000" points="1546.0623,-295.8757 1549.5622,-305.8757 1553.0623,-295.8757 1546.0623,-295.8757"/>
</g>
<!-- PaginationComponent -->
<g id="node35" class="node">
<title>PaginationComponent</title>
<polygon fill="#ffffb3" stroke="#000000" points="2330.7162,-122 2189.2838,-122 2189.2838,-86 2330.7162,-86 2330.7162,-122"/>
<text text-anchor="middle" x="2260" y="-99.8" font-family="Times,serif" font-size="14.00" fill="#000000">PaginationComponent</text>
</g>
<!-- PaginationModule -->
<g id="node36" class="node">
<title>PaginationModule</title>
<polygon fill="#8dd3c7" stroke="#000000" points="2319.9342,-190 2316.9342,-194 2295.9342,-194 2292.9342,-190 2200.0658,-190 2200.0658,-154 2319.9342,-154 2319.9342,-190"/>
<text text-anchor="middle" x="2260" y="-167.8" font-family="Times,serif" font-size="14.00" fill="#000000">PaginationModule</text>
</g>
<!-- PaginationComponent&#45;&gt;PaginationModule -->
<g id="edge33" class="edge">
<title>PaginationComponent&#45;&gt;PaginationModule</title>
<path fill="none" stroke="#000000" d="M2260,-122.2228C2260,-122.2228 2260,-143.7269 2260,-143.7269"/>
<polygon fill="#000000" stroke="#000000" points="2256.5001,-143.7269 2260,-153.7269 2263.5001,-143.727 2256.5001,-143.7269"/>
</g>
<!-- PaginationModule&#45;&gt;SharedModule -->
<g id="edge37" class="edge">
<title>PaginationModule&#45;&gt;SharedModule</title>
<path fill="none" stroke="#000000" d="M2240.0944,-190.0439C2240.0944,-202.5633 2240.0944,-217 2240.0944,-217 2240.0944,-217 1239.4037,-217 1239.4037,-217 1239.4037,-217 1239.4037,-219.9672 1239.4037,-219.9672"/>
<polygon fill="#000000" stroke="#000000" points="1235.9038,-219.9671 1239.4037,-229.9672 1242.9038,-219.9672 1235.9038,-219.9671"/>
</g>
<!-- PaginationComponent  -->
<g id="node37" class="node">
<title>PaginationComponent </title>
<polygon fill="#fb8072" stroke="#000000" points="2333.2163,-266 2188.7837,-266 2188.7837,-230 2333.2163,-230 2333.2163,-266"/>
<text text-anchor="middle" x="2261" y="-243.8" font-family="Times,serif" font-size="14.00" fill="#000000">PaginationComponent </text>
</g>
<!-- PaginationModule&#45;&gt;PaginationComponent  -->
<g id="edge34" class="edge">
<title>PaginationModule&#45;&gt;PaginationComponent </title>
<path fill="none" stroke="#000000" stroke-dasharray="5,2" d="M2279.9056,-190.0109C2279.9056,-190.0109 2279.9056,-219.855 2279.9056,-219.855"/>
<polygon fill="#000000" stroke="#000000" points="2276.4057,-219.8549 2279.9056,-229.855 2283.4057,-219.855 2276.4057,-219.8549"/>
</g>
<!-- TimelineModule -->
<g id="node38" class="node">
<title>TimelineModule</title>
<polygon fill="#8dd3c7" stroke="#000000" points="855.094,-342 852.094,-346 831.094,-346 828.094,-342 744.906,-342 744.906,-306 855.094,-306 855.094,-342"/>
<text text-anchor="middle" x="800" y="-319.8" font-family="Times,serif" font-size="14.00" fill="#000000">TimelineModule</text>
</g>
<!-- TimelineModule&#45;&gt;SharedModule -->
<g id="edge36" class="edge">
<title>TimelineModule&#45;&gt;SharedModule</title>
<path fill="none" stroke="#000000" d="M800,-305.8939C800,-286.6609 800,-259 800,-259 800,-259 1163.6487,-259 1163.6487,-259"/>
<polygon fill="#000000" stroke="#000000" points="1163.6487,-262.5001 1173.6487,-259 1163.6486,-255.5001 1163.6487,-262.5001"/>
</g>
<!-- TimeLineComponent  -->
<g id="node45" class="node">
<title>TimeLineComponent </title>
<polygon fill="#fb8072" stroke="#000000" points="164.0386,-418 23.9614,-418 23.9614,-382 164.0386,-382 164.0386,-418"/>
<text text-anchor="middle" x="94" y="-395.8" font-family="Times,serif" font-size="14.00" fill="#000000">TimeLineComponent </text>
</g>
<!-- TimelineModule&#45;&gt;TimeLineComponent  -->
<g id="edge44" class="edge">
<title>TimelineModule&#45;&gt;TimeLineComponent </title>
<path fill="none" stroke="#000000" stroke-dasharray="5,2" d="M750.8184,-342.0579C750.8184,-346.4945 750.8184,-350 750.8184,-350 750.8184,-350 94,-350 94,-350 94,-350 94,-371.9489 94,-371.9489"/>
<polygon fill="#000000" stroke="#000000" points="90.5001,-371.9488 94,-381.9489 97.5001,-371.9489 90.5001,-371.9488"/>
</g>
<!-- TimeLineItemComponent  -->
<g id="node46" class="node">
<title>TimeLineItemComponent </title>
<polygon fill="#fb8072" stroke="#000000" points="485.6953,-418 320.3047,-418 320.3047,-382 485.6953,-382 485.6953,-418"/>
<text text-anchor="middle" x="403" y="-395.8" font-family="Times,serif" font-size="14.00" fill="#000000">TimeLineItemComponent </text>
</g>
<!-- TimelineModule&#45;&gt;TimeLineItemComponent  -->
<g id="edge45" class="edge">
<title>TimelineModule&#45;&gt;TimeLineItemComponent </title>
<path fill="none" stroke="#000000" stroke-dasharray="5,2" d="M762.5491,-342.0555C762.5491,-353.439 762.5491,-366 762.5491,-366 762.5491,-366 479.8222,-366 479.8222,-366 479.8222,-366 479.8222,-371.8056 479.8222,-371.8056"/>
<polygon fill="#000000" stroke="#000000" points="476.3223,-371.8055 479.8222,-381.8056 483.3223,-371.8056 476.3223,-371.8055"/>
</g>
<!-- VisualInDirective  -->
<g id="node47" class="node">
<title>VisualInDirective </title>
<polygon fill="#fb8072" stroke="#000000" points="301.7906,-418 182.2094,-418 182.2094,-382 301.7906,-382 301.7906,-418"/>
<text text-anchor="middle" x="242" y="-395.8" font-family="Times,serif" font-size="14.00" fill="#000000">VisualInDirective </text>
</g>
<!-- TimelineModule&#45;&gt;VisualInDirective  -->
<g id="edge46" class="edge">
<title>TimelineModule&#45;&gt;VisualInDirective </title>
<path fill="none" stroke="#000000" stroke-dasharray="5,2" d="M756.6837,-342.1944C756.6837,-350.2782 756.6837,-358 756.6837,-358 756.6837,-358 242,-358 242,-358 242,-358 242,-371.9445 242,-371.9445"/>
<polygon fill="#000000" stroke="#000000" points="238.5001,-371.9444 242,-381.9445 245.5001,-371.9445 238.5001,-371.9444"/>
</g>
<!-- TimeLineComponent -->
<g id="node42" class="node">
<title>TimeLineComponent</title>
<polygon fill="#ffffb3" stroke="#000000" points="646.0394,-418 509.9606,-418 509.9606,-382 646.0394,-382 646.0394,-418"/>
<text text-anchor="middle" x="578" y="-395.8" font-family="Times,serif" font-size="14.00" fill="#000000">TimeLineComponent</text>
</g>
<!-- TimeLineComponent&#45;&gt;TimelineModule -->
<g id="edge41" class="edge">
<title>TimeLineComponent&#45;&gt;TimelineModule</title>
<path fill="none" stroke="#000000" d="M622.4013,-381.9421C622.4013,-377.5055 622.4013,-374 622.4013,-374 622.4013,-374 768.4145,-374 768.4145,-374 768.4145,-374 768.4145,-352.0511 768.4145,-352.0511"/>
<polygon fill="#000000" stroke="#000000" points="771.9146,-352.0511 768.4145,-342.0511 764.9146,-352.0512 771.9146,-352.0511"/>
</g>
<!-- TimeLineItemComponent -->
<g id="node43" class="node">
<title>TimeLineItemComponent</title>
<polygon fill="#ffffb3" stroke="#000000" points="960.1951,-418 797.8049,-418 797.8049,-382 960.1951,-382 960.1951,-418"/>
<text text-anchor="middle" x="879" y="-395.8" font-family="Times,serif" font-size="14.00" fill="#000000">TimeLineItemComponent</text>
</g>
<!-- TimeLineItemComponent&#45;&gt;TimelineModule -->
<g id="edge42" class="edge">
<title>TimeLineItemComponent&#45;&gt;TimelineModule</title>
<path fill="none" stroke="#000000" d="M826.4748,-381.9891C826.4748,-381.9891 826.4748,-352.145 826.4748,-352.145"/>
<polygon fill="#000000" stroke="#000000" points="829.9748,-352.145 826.4748,-342.145 822.9748,-352.1451 829.9748,-352.145"/>
</g>
<!-- VisualInDirective -->
<g id="node44" class="node">
<title>VisualInDirective</title>
<polygon fill="#ffffb3" stroke="#000000" points="780.2908,-418 663.7092,-418 663.7092,-382 780.2908,-382 780.2908,-418"/>
<text text-anchor="middle" x="722" y="-395.8" font-family="Times,serif" font-size="14.00" fill="#000000">VisualInDirective</text>
</g>
<!-- VisualInDirective&#45;&gt;TimelineModule -->
<g id="edge43" class="edge">
<title>VisualInDirective&#45;&gt;TimelineModule</title>
<path fill="none" stroke="#000000" d="M774.2798,-381.9891C774.2798,-381.9891 774.2798,-352.145 774.2798,-352.145"/>
<polygon fill="#000000" stroke="#000000" points="777.7799,-352.145 774.2798,-342.145 770.7799,-352.1451 777.7799,-352.145"/>
</g>
</g>
</svg>
